<?xml version="1.0" encoding="UTF-8" standalone="no"?>
<!-- Created with Inkscape (http://www.inkscape.org/) -->

<svg
   xmlns:dc="http://purl.org/dc/elements/1.1/"
   xmlns:cc="http://creativecommons.org/ns#"
   xmlns:rdf="http://www.w3.org/1999/02/22-rdf-syntax-ns#"
   xmlns:svg="http://www.w3.org/2000/svg"
   xmlns="http://www.w3.org/2000/svg"
   xmlns:sodipodi="http://sodipodi.sourceforge.net/DTD/sodipodi-0.dtd"
   xmlns:inkscape="http://www.inkscape.org/namespaces/inkscape"
   id="svg3355"
   version="1.1"
   inkscape:version="0.91 r13725"
   xml:space="preserve"
   width="237.08295"
   height="237.08295"
   viewBox="0 0 237.08295 237.08295"
   sodipodi:docname="logo-no-text.svg"><metadata
     id="metadata3361"><rdf:RDF><cc:Work
         rdf:about=""><dc:format>image/svg+xml</dc:format><dc:type
           rdf:resource="http://purl.org/dc/dcmitype/StillImage" /><dc:title></dc:title></cc:Work></rdf:RDF></metadata><defs
     id="defs3359"><clipPath
       clipPathUnits="userSpaceOnUse"
       id="clipPath3369"><path
         d="m 0,529.324 595.28,0 L 595.28,0 0,0 0,529.324 Z"
         id="path3371"
         inkscape:connector-curvature="0" /></clipPath><clipPath
       clipPathUnits="userSpaceOnUse"
       id="clipPath3401"><path
         d="m 0,529.324 595.28,0 L 595.28,0 0,0 0,529.324 Z"
         id="path3403"
         inkscape:connector-curvature="0" /></clipPath></defs><sodipodi:namedview
     pagecolor="#ffffff"
     bordercolor="#666666"
     borderopacity="1"
     objecttolerance="10"
     gridtolerance="10"
     guidetolerance="10"
     inkscape:pageopacity="0"
     inkscape:pageshadow="2"
     inkscape:window-width="1436"
     inkscape:window-height="855"
     id="namedview3357"
     showgrid="false"
     fit-margin-top="0"
     fit-margin-left="0"
     fit-margin-right="0"
     fit-margin-bottom="0"
     inkscape:zoom="0.5"
     inkscape:cx="-237.65828"
     inkscape:cy="-37.095684"
     inkscape:window-x="4"
     inkscape:window-y="0"
     inkscape:window-maximized="1"
     inkscape:current-layer="g3363" /><g
     id="g3363"
     inkscape:groupmode="layer"
     inkscape:label="GTRANSLATElogo2"
     transform="matrix(1.25,0,0,-1.25,-258.66531,558.3812)"><g
       id="g3365"
       inkscape:export-xdpi="36.610001"
       inkscape:export-ydpi="36.610001"
       transform="translate(0,6.3341813)"><g
         id="g3367"
         clip-path="url(#clipPath3369)"><g
           id="g3373"
           transform="translate(291.7686,339.6338)"><path
             d="m 0,0 c 5.178,-5.521 8.917,-12.041 11.022,-19.173 2.14,7.077 5.91,13.519 11.109,18.927 C 18.686,-1.034 15.156,-1.432 11.578,-1.432 7.638,-1.432 3.764,-0.952 0,0 m -35.305,-81.085 c -12.769,0.004 -24.841,5.014 -33.932,14.106 -7.654,7.653 -12.512,17.708 -13.769,28.444 l -0.134,0 -0.088,1.487 -0.01,1.139 c -0.896,13.723 4.206,27.26 14.001,37.055 9.098,9.099 21.196,14.109 34.065,14.109 4.124,0 8.169,-0.51 12.089,-1.524 -8.083,8.739 -12.512,20.029 -12.512,31.999 0,12.6 4.907,24.446 13.818,33.355 8.909,8.91 20.755,13.817 33.355,13.817 12.6,0 24.445,-4.907 33.355,-13.817 8.91,-8.909 13.817,-20.755 13.817,-33.355 0,-12.28 -4.661,-23.844 -13.146,-32.671 3.45,0.79 6.985,1.189 10.568,1.189 12.596,0 24.436,-4.904 33.341,-13.809 8.91,-8.91 13.817,-20.755 13.817,-33.356 0,-12.599 -4.907,-24.445 -13.817,-33.354 -8.909,-8.911 -20.755,-13.818 -33.356,-13.818 -12.6,0 -24.446,4.907 -33.355,13.818 -5.547,5.546 -9.549,12.233 -11.78,19.61 -2.252,-7.632 -6.376,-14.564 -12.132,-20.318 -9.075,-9.077 -21.138,-14.085 -33.974,-14.109 l -0.031,-0.002 -0.19,0.005 z"
             style="fill:#ffffff;fill-opacity:1;fill-rule:nonzero;stroke:none"
             id="path3375"
             inkscape:connector-curvature="0" /></g><g
           id="g3377"
           transform="translate(302.8076,325.0176)"><path
             d="m 0,0 c -1.736,4.394 -4.102,8.515 -7.05,12.272 2.495,-0.391 5.029,-0.587 7.589,-0.587 2.215,0 4.411,0.147 6.582,0.441 C 4.151,8.431 1.761,4.355 0,0 m 0.539,109.019 c -13.001,0 -25.223,-5.063 -34.416,-14.257 -9.193,-9.192 -14.257,-21.415 -14.257,-34.416 0,-10.857 3.531,-21.171 10.051,-29.632 -2.667,0.437 -5.381,0.658 -8.128,0.658 -13.269,0 -25.744,-5.167 -35.125,-14.549 -10.081,-10.08 -15.341,-24.004 -14.44,-38.213 l 0.009,-1.055 0.026,-2.974 0.379,0 c 1.529,-10.57 6.448,-20.429 14.026,-28.005 9.358,-9.36 21.783,-14.524 34.99,-14.547 l 0.012,0 0.193,-0.008 0.087,0.007 c 13.21,0.041 25.624,5.204 34.966,14.548 4.878,4.878 8.62,10.577 11.088,16.823 2.42,-5.987 6.03,-11.444 10.702,-16.115 9.193,-9.194 21.415,-14.257 34.416,-14.257 13.001,0 25.224,5.063 34.416,14.257 9.194,9.193 14.257,21.415 14.257,34.416 0,13.001 -5.063,25.223 -14.257,34.416 -9.187,9.188 -21.405,14.248 -34.401,14.248 -2.22,0 -4.421,-0.148 -6.597,-0.443 6.917,8.604 10.675,19.226 10.675,30.425 0,13.001 -5.064,25.224 -14.257,34.417 -9.192,9.193 -21.414,14.256 -34.415,14.256 M -0.036,-11.46 c 1.404,9.316 5.686,18.282 12.859,25.455 1.383,1.382 2.838,2.645 4.344,3.813 -5.336,-2.083 -10.98,-3.123 -16.628,-3.123 -6.046,0 -12.094,1.193 -17.758,3.582 1.391,-1.107 2.734,-2.29 4.009,-3.565 C -6.028,7.52 -1.477,-1.59 -0.036,-11.46 m 0.575,117.479 c 11.689,0 23.376,-4.459 32.294,-13.378 17.837,-17.836 17.837,-46.754 0,-64.59 -1.383,-1.383 -2.839,-2.645 -4.345,-3.814 5.34,2.085 10.992,3.127 16.645,3.127 11.683,0 23.365,-4.455 32.28,-13.369 17.837,-17.836 17.837,-46.754 0,-64.59 -8.918,-8.919 -20.606,-13.378 -32.295,-13.378 -11.688,0 -23.377,4.459 -32.295,13.378 -7.173,7.173 -11.455,16.138 -12.859,25.454 -1.441,-9.87 -5.991,-18.98 -13.174,-26.162 -8.808,-8.809 -20.519,-13.663 -32.978,-13.669 l -0.023,-0.002 -0.071,0.003 c -12.412,0.006 -24.126,4.861 -32.933,13.668 -7.752,7.751 -12.515,17.977 -13.477,28.884 l -0.075,0 -0.01,1.139 c -0.87,13.354 4.072,26.492 13.562,35.982 8.815,8.815 20.538,13.67 33.004,13.67 6.364,0 12.53,-1.272 18.218,-3.684 -1.299,1.042 -2.558,2.159 -3.763,3.363 -17.837,17.836 -17.837,46.754 0,64.59 8.918,8.919 20.607,13.378 32.295,13.378"
             style="fill:#ffffff;fill-opacity:1;fill-rule:nonzero;stroke:none"
             id="path3379"
             inkscape:connector-curvature="0" /></g><g
           id="g3381"
           transform="translate(293.1309,377.7793)"><path
             d="m 0,0 c 0,-4.382 2.539,-6.573 7.622,-6.573 6.847,0 10.27,3.424 10.27,10.27 l 0,4.565 C 15.943,8.657 14.483,8.854 13.51,8.854 4.503,8.854 0,5.903 0,0"
             style="fill:#8b3084;fill-opacity:1;fill-rule:nonzero;stroke:none"
             id="path3383"
             inkscape:connector-curvature="0" /></g><g
           id="g3385"
           transform="translate(323.1641,362.6943)"><path
             d="m 0,0 c -1.156,-0.381 -2.48,-0.571 -3.972,-0.571 -1.643,0 -3.119,0.609 -4.426,1.826 -1.309,1.217 -2.192,2.54 -2.648,3.971 -1.034,-1.705 -2.838,-3.097 -5.409,-4.176 -2.571,-1.08 -5.257,-1.621 -8.056,-1.621 -5.264,0 -9.403,1.316 -12.415,3.948 -3.012,2.632 -4.519,6.368 -4.519,11.206 0,5.66 2.123,10.087 6.367,13.282 4.246,3.196 10.277,4.793 18.098,4.793 1.339,0 2.921,-0.229 4.748,-0.685 0,5.752 -3.637,8.627 -10.911,8.627 -4.289,0 -7.88,-0.715 -10.771,-2.145 l -2.465,8.855 c 3.926,1.886 8.597,2.83 14.014,2.83 7.455,0 12.917,-1.697 16.386,-5.09 3.468,-3.393 5.203,-9.821 5.203,-19.284 l 0,-10.453 C -0.776,8.801 0.531,4.708 3.149,3.035 2.205,1.392 1.156,0.38 0,0 m 12.152,54.836 c -17.835,17.837 -46.753,17.837 -64.589,0 -17.836,-17.836 -17.836,-46.753 0,-64.589 17.836,-17.837 46.754,-17.837 64.589,0 17.837,17.836 17.837,46.753 0,64.589"
             style="fill:#8b3084;fill-opacity:1;fill-rule:nonzero;stroke:none"
             id="path3387"
             inkscape:connector-curvature="0" /></g><g
           id="g3389"
           transform="translate(252.5381,344.9761)"><path
             d="m 0,0 0,-35.037 -15.787,0 c 0.2,4.477 0.802,8.815 1.791,12.91 1.171,4.847 2.824,9.164 4.915,12.829 1.92,3.363 4.175,6.059 6.52,7.798 0.842,0.624 1.699,1.125 2.561,1.5 m -14.332,-3.577 c -5.236,-8.056 -8.436,-19.248 -8.934,-31.46 l -12.059,0 c 0.777,9.195 4.777,17.814 11.335,24.371 2.874,2.874 6.11,5.249 9.658,7.089 m -8.892,-38.928 c 0.6,-11.908 3.784,-22.821 8.894,-30.693 -3.548,1.841 -6.786,4.216 -9.66,7.089 -6.357,6.358 -10.33,14.704 -11.258,23.604 l 12.024,0 z m 23.224,0 0,-34.269 c -0.862,0.375 -1.72,0.877 -2.561,1.501 -2.345,1.737 -4.599,4.434 -6.519,7.796 -2.091,3.665 -3.745,7.981 -4.916,12.83 -0.928,3.843 -1.516,7.923 -1.747,12.142 l 15.743,0 z m 42.791,7.468 -12.059,0 c -0.498,12.214 -3.697,23.404 -8.931,31.46 3.546,-1.841 6.782,-4.215 9.655,-7.089 6.558,-6.557 10.559,-15.176 11.335,-24.371 m -0.077,-7.468 c -0.928,-8.9 -4.901,-17.246 -11.259,-23.604 -2.873,-2.873 -6.109,-5.248 -9.656,-7.089 5.108,7.873 8.291,18.785 8.89,30.693 l 12.025,0 z M 7.468,-35.037 7.468,0 c 0.862,-0.375 1.72,-0.877 2.561,-1.5 2.347,-1.739 4.601,-4.436 6.52,-7.798 2.094,-3.67 3.748,-7.986 4.917,-12.83 0.989,-4.101 1.591,-8.439 1.791,-12.909 l -15.789,0 z m 15.746,-7.468 c -0.233,-4.213 -0.819,-8.293 -1.748,-12.143 -1.169,-4.843 -2.823,-9.159 -4.917,-12.829 -1.92,-3.362 -4.174,-6.059 -6.52,-7.796 -0.841,-0.624 -1.699,-1.126 -2.561,-1.501 l 0,34.269 15.746,0 z m 13.521,37.12 C 27.921,3.431 16.201,8.285 3.734,8.285 c -12.465,0 -24.189,-4.854 -33.004,-13.67 -9.489,-9.489 -14.432,-22.627 -13.562,-35.981 l 0.01,-1.139 0.075,0 c 0.962,-10.908 5.726,-21.133 13.477,-28.884 8.807,-8.808 20.521,-13.662 32.933,-13.668 l 0.071,-0.003 0.023,0.001 c 12.459,0.006 24.171,4.861 32.978,13.67 8.817,8.815 13.671,20.535 13.671,33.002 0,12.467 -4.854,24.187 -13.671,33.002"
             style="fill:#dba20a;fill-opacity:1;fill-rule:nonzero;stroke:none"
             id="path3391"
             inkscape:connector-curvature="0" /></g><g
           id="g3393"
           transform="translate(361.0078,278.1431)"><path
             d="M 0,0 -11.563,15.588 -21.173,4.07 -34.612,58.106 13.203,29.575 -0.604,23.717 10.959,8.13 0,0 Z m 18.889,60.741 c -17.836,17.836 -46.754,17.836 -64.59,0 -17.836,-17.836 -17.836,-46.754 0,-64.59 17.836,-17.837 46.754,-17.837 64.59,0 17.837,17.836 17.837,46.754 0,64.59"
             style="fill:#307394;fill-opacity:1;fill-rule:nonzero;stroke:none"
             id="path3395"
             inkscape:connector-curvature="0" /></g></g></g></g></svg>