<?xml version="1.0" encoding="utf-8"?>
<!-- Generator: Adobe Illustrator 15.0.0, SVG Export Plug-In . SVG Version: 6.00 Build 0)  -->
<!DOCTYPE svg PUBLIC "-//W3C//DTD SVG 1.1//EN" "http://www.w3.org/Graphics/SVG/1.1/DTD/svg11.dtd">
<svg version="1.1" id="Calque_1" xmlns="http://www.w3.org/2000/svg" xmlns:xlink="http://www.w3.org/1999/xlink" x="0px" y="0px"
	 width="233.875px" height="248.989px" viewBox="0 0 233.875 248.989" enable-background="new 0 0 233.875 248.989"
	 xml:space="preserve">
<g id="layer-1">
	<g>
		<path fill="#FFFFFF" d="M71.618,175.486c-12.77-0.004-24.842-5.017-33.932-14.106c-7.654-7.653-12.513-17.709-13.771-28.443
			h-0.134l-0.088-1.486l-0.011-1.14c-0.896-13.724,4.206-27.261,14.001-37.056c9.098-9.099,21.196-14.108,34.065-14.108
			c4.124,0,8.168,0.511,12.089,1.524c-8.083-8.738-12.512-20.028-12.512-32c0-12.6,4.906-24.445,13.816-33.354
			c8.91-8.91,20.756-13.817,33.355-13.817s24.445,4.907,33.354,13.817c8.91,8.91,13.816,20.755,13.816,33.354
			c0,12.281-4.66,23.845-13.145,32.672c3.449-0.791,6.982-1.189,10.564-1.189c12.6,0,24.439,4.904,33.344,13.809
			c8.91,8.91,13.814,20.756,13.814,33.355s-4.904,24.445-13.814,33.355c-8.908,8.91-20.754,13.818-33.355,13.818
			c-12.6,0-24.445-4.908-33.354-13.818c-5.551-5.547-9.553-12.234-11.779-19.611c-2.254,7.633-6.377,14.564-12.135,20.318
			c-9.074,9.076-21.138,14.086-33.974,14.108l-0.031,0.003L71.618,175.486z M106.922,94.401c5.178,5.521,8.916,12.041,11.021,19.174
			c2.141-7.078,5.91-13.521,11.109-18.928c-3.445,0.789-6.979,1.186-10.557,1.186C114.559,95.833,110.686,95.353,106.922,94.401z"/>
		<path fill="#FFFFFF" d="M118.5,2.999c11.688,0,23.375,4.459,32.293,13.377c17.838,17.835,17.838,46.753,0,64.589
			c-1.383,1.384-2.838,2.646-4.344,3.814c5.34-2.084,10.992-3.126,16.645-3.126c11.684,0,23.365,4.455,32.279,13.369
			c17.838,17.836,17.838,46.753,0,64.589c-8.918,8.919-20.605,13.378-32.295,13.378c-11.688,0-23.377-4.459-32.295-13.378
			c-7.172-7.173-11.455-16.138-12.859-25.453c-1.439,9.869-5.99,18.979-13.173,26.161c-8.808,8.81-20.521,13.663-32.979,13.668
			l-0.021,0.003l-0.071-0.003c-12.412-0.006-24.126-4.86-32.933-13.668c-7.752-7.751-12.516-17.978-13.477-28.884h-0.076
			l-0.01-1.139c-0.869-13.354,4.072-26.494,13.562-35.982c8.814-8.814,20.539-13.67,33.004-13.67c6.363,0,12.529,1.271,18.218,3.684
			c-1.299-1.043-2.558-2.158-3.763-3.363c-17.838-17.836-17.838-46.754,0-64.59C95.124,7.458,106.811,2.999,118.5,2.999
			 M117.924,120.477c1.404-9.316,5.688-18.282,12.859-25.455c1.383-1.382,2.838-2.645,4.344-3.812
			c-5.336,2.082-10.98,3.123-16.629,3.123c-6.045,0-12.094-1.195-17.758-3.582c1.392,1.106,2.733,2.289,4.01,3.564
			C111.933,101.497,116.485,110.607,117.924,120.477 M118.5-0.001c-13.001,0-25.223,5.063-34.416,14.256
			C74.891,23.447,69.827,35.67,69.827,48.67c0,10.857,3.531,21.172,10.051,29.633c-2.667-0.438-5.381-0.657-8.127-0.657
			c-13.27,0-25.744,5.167-35.125,14.549c-10.081,10.08-15.34,24.004-14.439,38.212l0.01,1.055l0.025,2.975H22.6
			c1.529,10.57,6.448,20.429,14.025,28.005c9.359,9.358,21.783,14.524,34.99,14.545h0.012l0.193,0.009l0.086-0.007
			c13.211-0.041,25.625-5.204,34.967-14.548c4.878-4.878,8.621-10.577,11.088-16.822c2.42,5.986,6.029,11.443,10.701,16.114
			c9.193,9.194,21.416,14.256,34.416,14.256c13.002,0,25.225-5.062,34.416-14.256c9.193-9.192,14.258-21.415,14.258-34.416
			c0-13-5.062-25.224-14.258-34.416c-9.188-9.188-21.404-14.248-34.4-14.248c-2.221,0-4.422,0.147-6.598,0.442
			c6.918-8.604,10.676-19.227,10.676-30.424c0-13.002-5.062-25.225-14.258-34.417C143.723,5.062,131.5-0.001,118.5-0.001
			L118.5-0.001z M117.961,109.017c-1.736-4.394-4.102-8.515-7.051-12.272c2.496,0.391,5.029,0.588,7.59,0.588
			c2.215,0,4.41-0.147,6.582-0.441C122.112,100.586,119.721,104.663,117.961,109.017L117.961,109.017z"/>
	</g>
	<g>
		<path fill="#8B3084" d="M108.284,56.254c0,4.383,2.539,6.574,7.623,6.574c6.846,0,10.271-3.425,10.271-10.271v-4.563
			c-1.947-0.396-3.408-0.594-4.385-0.594C112.788,47.401,108.284,50.352,108.284,56.254z"/>
		<path fill="#8B3084" d="M150.469,16.504c-17.834-17.836-46.753-17.836-64.589,0c-17.837,17.836-17.837,46.754,0,64.59
			c17.836,17.836,46.755,17.836,64.589,0C168.307,63.258,168.307,34.34,150.469,16.504z M138.317,71.34
			c-1.156,0.381-2.48,0.57-3.971,0.57c-1.645,0-3.119-0.609-4.428-1.826s-2.191-2.541-2.646-3.971
			c-1.035,1.705-2.838,3.098-5.41,4.176c-2.57,1.08-5.256,1.621-8.055,1.621c-5.266,0-9.404-1.314-12.416-3.947
			c-3.013-2.633-4.52-6.367-4.52-11.205c0-5.66,2.123-10.088,6.367-13.283c4.246-3.195,10.277-4.793,18.098-4.793
			c1.34,0,2.922,0.229,4.748,0.686c0-5.752-3.637-8.628-10.91-8.628c-4.289,0-7.881,0.716-10.771,2.146l-2.465-8.854
			c3.926-1.886,8.598-2.83,14.014-2.83c7.455,0,12.918,1.697,16.387,5.09s5.203,9.821,5.203,19.284v10.452
			c0,6.513,1.309,10.604,3.926,12.278C140.522,69.948,139.473,70.961,138.317,71.34z"/>
	</g>
	<path fill="#DBA20A" d="M104.426,94.443c-8.814-8.815-20.533-13.67-33.001-13.67c-12.466,0-24.188,4.854-33.004,13.67
		c-9.489,9.489-14.433,22.627-13.562,35.981l0.01,1.139h0.074c0.961,10.906,5.726,21.133,13.478,28.884
		c8.808,8.808,20.521,13.663,32.933,13.669l0.071,0.002l0.022-0.002c12.459-0.007,24.17-4.859,32.979-13.669
		c8.816-8.815,13.672-20.536,13.672-33.002S113.243,103.258,104.426,94.443z M90.905,131.564c-0.231,4.213-0.818,8.293-1.748,12.144
		c-1.168,4.842-2.822,9.158-4.916,12.828c-1.92,3.363-4.174,6.059-6.521,7.797c-0.842,0.625-1.698,1.127-2.562,1.502v-34.27
		L90.905,131.564L90.905,131.564z M75.159,124.096V89.059c0.863,0.375,1.721,0.877,2.562,1.5c2.348,1.738,4.602,4.436,6.52,7.797
		c2.095,3.67,3.748,7.986,4.918,12.83c0.988,4.102,1.591,8.439,1.791,12.908L75.159,124.096L75.159,124.096z M110.405,131.564
		c-0.928,8.899-4.899,17.246-11.258,23.604c-2.873,2.873-6.109,5.248-9.656,7.088c5.107-7.873,8.291-18.785,8.891-30.692H110.405z
		 M110.483,124.096h-12.06c-0.498-12.215-3.696-23.404-8.933-31.461c3.547,1.842,6.783,4.216,9.656,7.089
		C105.706,106.282,109.707,114.9,110.483,124.096z M67.692,131.564v34.269c-0.863-0.375-1.721-0.877-2.562-1.5
		c-2.347-1.738-4.601-4.435-6.521-7.797c-2.09-3.666-3.744-7.982-4.916-12.83c-0.928-3.844-1.516-7.922-1.746-12.142H67.692z
		 M44.467,131.564c0.6,11.907,3.783,22.819,8.895,30.692c-3.549-1.84-6.787-4.215-9.66-7.088
		c-6.357-6.358-10.33-14.705-11.258-23.604H44.467L44.467,131.564z M53.36,92.635c-5.236,8.057-8.437,19.248-8.935,31.461h-12.06
		c0.776-9.195,4.777-17.812,11.336-24.372C46.575,96.851,49.811,94.476,53.36,92.635z M67.692,89.059v35.037H51.905
		c0.199-4.477,0.802-8.815,1.791-12.91c1.17-4.848,2.824-9.164,4.914-12.83c1.92-3.363,4.176-6.059,6.521-7.797
		C65.972,89.935,66.829,89.433,67.692,89.059z"/>
	<path fill="#307394" d="M195.049,95.15c-17.836-17.836-46.754-17.836-64.59,0s-17.836,46.754,0,64.59
		c17.836,17.837,46.754,17.837,64.59,0C212.887,141.904,212.887,112.986,195.049,95.15z M176.161,155.892l-11.562-15.589
		l-9.609,11.519l-13.438-54.036l47.814,28.531l-13.809,5.857l11.561,15.586L176.161,155.892z"/>
</g>
<g id="Calque_2">
	<g>
		<path fill="#FFFFFF" d="M0.167,243.979l5.27-6.734c2.911,2.762,6.156,4.146,9.734,4.146c2.4,0,4.38-0.369,5.936-1.104
			c1.557-0.736,2.334-1.75,2.334-3.039c0-2.188-1.723-3.281-5.168-3.281c-0.936,0-2.324,0.113-4.168,0.348
			c-1.846,0.229-3.234,0.344-4.168,0.344c-5.734,0-8.603-2.129-8.603-6.393c0-1.219,0.479-2.418,1.434-3.592
			c0.955-1.174,2.067-2.039,3.335-2.59C2.034,219.342,0,215.461,0,210.441c0-3.961,1.401-7.235,4.202-9.826
			c2.8-2.592,6.244-3.889,10.334-3.889c3.201,0,5.881,0.624,8.035,1.866l3.27-3.938l5.77,5.427l-3.97,3.004
			c1.38,2.166,2.067,4.719,2.067,7.67c0,4.213-1.239,7.58-3.717,10.104c-2.479,2.521-5.607,3.781-9.387,3.781
			c-0.601,0-1.4-0.057-2.4-0.17l-1.367-0.209c-0.156,0-0.75,0.248-1.783,0.742s-1.551,1.01-1.551,1.537
			c0,0.922,0.768,1.381,2.301,1.381c0.688,0,1.846-0.17,3.469-0.521c1.623-0.345,3.012-0.517,4.166-0.517
			c8.114,0,12.172,3.373,12.172,10.121c0,3.729-1.625,6.662-4.869,8.791c-3.248,2.129-7.158,3.193-11.738,3.193
			C9.536,248.988,4.589,247.32,0.167,243.979z M8.502,210.473c0,2.189,0.584,3.943,1.751,5.268c1.167,1.326,2.739,1.986,4.718,1.986
			s3.501-0.646,4.568-1.936c1.066-1.289,1.601-3.062,1.601-5.318c0-1.865-0.573-3.441-1.718-4.732
			c-1.145-1.289-2.628-1.936-4.451-1.936c-1.912,0-3.469,0.623-4.669,1.865C9.102,206.917,8.502,208.514,8.502,210.473z"/>
		<path fill="#FFFFFF" d="M36.909,192.422h-9.461c-0.211-1.058-0.317-2.166-0.317-3.33c0-1.094,0.106-2.168,0.317-3.225h26.697
			c0.211,1.057,0.315,2.131,0.315,3.225c0,1.164-0.104,2.271-0.315,3.33h-9.464v31.455c-0.635,0.069-1.271,0.131-1.903,0.186
			c-0.635,0.055-1.25,0.08-1.85,0.08s-1.242-0.02-1.93-0.053c-0.688-0.037-1.385-0.107-2.088-0.213L36.909,192.422L36.909,192.422z"
			/>
		<path fill="#FFFFFF" d="M52.452,196.545c0.529-0.105,1.029-0.187,1.507-0.236c0.476-0.055,0.995-0.08,1.56-0.08
			c0.528,0,1.047,0.033,1.559,0.107c0.511,0.067,1.013,0.154,1.507,0.262c0.104,0.178,0.202,0.432,0.291,0.766
			c0.088,0.338,0.167,0.688,0.237,1.059c0.072,0.371,0.133,0.74,0.187,1.111c0.052,0.369,0.097,0.678,0.131,0.926
			c0.776-1.094,1.728-2.07,2.856-2.936c1.127-0.863,2.537-1.297,4.229-1.297c0.352,0,0.758,0.02,1.217,0.055
			c0.457,0.035,0.791,0.088,1.004,0.158c0.069,0.354,0.123,0.758,0.158,1.215c0.036,0.459,0.053,0.936,0.053,1.43
			c0,0.6-0.025,1.25-0.078,1.955s-0.151,1.375-0.291,2.01c-0.387-0.069-0.819-0.104-1.295-0.104s-0.767,0-0.873,0
			c-0.6,0-1.27,0.062-2.008,0.185c-0.74,0.123-1.445,0.449-2.115,0.979c-0.67,0.527-1.225,1.32-1.666,2.379
			c-0.441,1.057-0.66,2.537-0.66,4.441v13.002c-0.635,0.104-1.27,0.178-1.904,0.214c-0.634,0.032-1.25,0.052-1.849,0.052
			c-0.601,0-1.208-0.02-1.825-0.052c-0.616-0.036-1.262-0.106-1.93-0.214V196.545L52.452,196.545z"/>
		<path fill="#FFFFFF" d="M85.09,205.902c0-0.847-0.143-1.532-0.422-2.06c-0.283-0.53-0.672-0.944-1.164-1.246
			c-0.495-0.297-1.104-0.502-1.824-0.604c-0.723-0.107-1.525-0.16-2.406-0.16c-1.902,0-3.929,0.369-6.078,1.108
			c-0.494-0.914-0.864-1.776-1.109-2.59c-0.248-0.812-0.37-1.779-0.37-2.908c1.55-0.528,3.101-0.916,4.651-1.161
			c1.551-0.248,2.996-0.371,4.334-0.371c3.666,0,6.529,0.883,8.592,2.643c2.061,1.764,3.091,4.582,3.091,8.459v15.859
			c-1.233,0.389-2.729,0.758-4.493,1.108c-1.763,0.354-3.753,0.528-5.974,0.528c-1.797,0-3.445-0.157-4.942-0.477
			c-1.498-0.316-2.783-0.846-3.859-1.588c-1.075-0.736-1.903-1.689-2.484-2.854c-0.582-1.162-0.872-2.59-0.872-4.283
			c0-1.689,0.36-3.107,1.083-4.254s1.657-2.062,2.803-2.75s2.422-1.182,3.832-1.479c1.409-0.301,2.819-0.451,4.229-0.451
			c1.022,0,2.149,0.053,3.384,0.158V205.902L85.09,205.902z M85.09,211.35c-0.422-0.072-0.881-0.135-1.375-0.188
			c-0.494-0.054-0.936-0.08-1.32-0.08c-1.729,0-3.093,0.311-4.098,0.924c-1.005,0.619-1.507,1.615-1.507,2.988
			c0,0.918,0.192,1.623,0.581,2.114c0.389,0.496,0.854,0.854,1.402,1.086c0.545,0.229,1.125,0.369,1.744,0.423
			c0.616,0.053,1.153,0.077,1.612,0.077c0.528,0,1.058-0.043,1.586-0.131s0.985-0.166,1.375-0.237L85.09,211.35L85.09,211.35z"/>
		<path fill="#FFFFFF" d="M96.981,196.545c0.494-0.105,0.987-0.187,1.48-0.236c0.494-0.055,1.039-0.08,1.641-0.08
			c0.598,0,1.127,0.025,1.584,0.08c0.459,0.051,0.934,0.131,1.428,0.236c0.106,0.176,0.203,0.434,0.291,0.768
			s0.168,0.688,0.238,1.057c0.07,0.371,0.133,0.732,0.186,1.084c0.053,0.354,0.097,0.652,0.132,0.898
			c0.353-0.529,0.774-1.059,1.269-1.586c0.494-0.529,1.065-1.004,1.719-1.43c0.65-0.422,1.381-0.767,2.193-1.031
			c0.811-0.262,1.709-0.395,2.696-0.395c3.101,0,5.437,0.844,7.005,2.536c1.564,1.69,2.354,4.354,2.354,7.981v17.445
			c-1.27,0.213-2.52,0.314-3.754,0.314s-2.484-0.104-3.752-0.314v-15.433c0-1.903-0.295-3.364-0.875-4.392
			c-0.58-1.021-1.594-1.53-3.039-1.53c-0.601,0-1.217,0.086-1.852,0.265c-0.633,0.178-1.207,0.52-1.717,1.03
			c-0.512,0.513-0.926,1.226-1.243,2.14c-0.315,0.918-0.476,2.114-0.476,3.596v14.326c-1.269,0.213-2.521,0.315-3.752,0.315
			c-1.235,0-2.485-0.104-3.754-0.315v-27.33H96.981z"/>
		<path fill="#FFFFFF" d="M132.088,211.982c-1.975-0.563-3.516-1.399-4.625-2.513c-1.111-1.108-1.666-2.774-1.666-4.995
			c0-2.675,0.959-4.772,2.881-6.289c1.922-1.515,4.539-2.272,7.85-2.272c1.375,0,2.73,0.125,4.072,0.371
			c1.338,0.245,2.693,0.614,4.07,1.108c-0.07,0.916-0.248,1.868-0.529,2.854s-0.617,1.85-1.004,2.59
			c-0.846-0.354-1.779-0.66-2.801-0.926c-1.025-0.264-2.1-0.396-3.227-0.396c-1.201,0-2.133,0.187-2.803,0.555
			c-0.67,0.371-1.004,0.962-1.004,1.772c0,0.775,0.234,1.32,0.715,1.64c0.475,0.313,1.148,0.617,2.035,0.896l3.012,0.898
			c0.986,0.283,1.879,0.627,2.672,1.033c0.791,0.402,1.471,0.906,2.035,1.506c0.561,0.6,1.002,1.34,1.32,2.223
			c0.314,0.879,0.477,1.953,0.477,3.223c0,1.304-0.273,2.519-0.82,3.648c-0.547,1.127-1.34,2.104-2.379,2.934
			s-2.299,1.479-3.777,1.955c-1.482,0.478-3.156,0.715-5.023,0.715c-0.846,0-1.621-0.024-2.326-0.077
			c-0.707-0.056-1.385-0.144-2.037-0.267c-0.646-0.125-1.293-0.272-1.928-0.449c-0.635-0.176-1.32-0.403-2.061-0.688
			c0.068-0.95,0.236-1.911,0.502-2.881c0.264-0.969,0.607-1.912,1.029-2.828c1.162,0.457,2.266,0.804,3.305,1.031
			c1.041,0.229,2.125,0.344,3.25,0.344c0.494,0,1.031-0.043,1.611-0.133c0.584-0.088,1.121-0.246,1.613-0.478
			c0.494-0.229,0.908-0.526,1.242-0.897c0.336-0.369,0.504-0.854,0.504-1.453c0-0.846-0.258-1.455-0.771-1.823
			c-0.51-0.369-1.223-0.695-2.139-0.979L132.088,211.982z"/>
		<path fill="#FFFFFF" d="M149.833,185.232c1.27-0.209,2.52-0.315,3.754-0.315c1.195,0,2.432,0.106,3.701,0.315v27.756
			c0,1.093,0.061,1.974,0.184,2.642s0.316,1.19,0.58,1.561c0.268,0.369,0.609,0.627,1.031,0.768
			c0.424,0.142,0.953,0.211,1.586,0.211c0.283,0,0.59-0.018,0.928-0.055c0.332-0.033,0.66-0.086,0.977-0.156
			c0.387,1.445,0.582,2.854,0.582,4.228c0,0.282,0,0.541,0,0.771c0,0.23-0.035,0.483-0.105,0.766
			c-0.561,0.178-1.24,0.301-2.033,0.371c-0.793,0.068-1.523,0.104-2.195,0.104c-2.713,0-4.887-0.748-6.527-2.245
			c-1.639-1.496-2.457-3.939-2.457-7.322v-29.396h-0.004V185.232z"/>
		<path fill="#FFFFFF" d="M179.94,205.902c0-0.847-0.143-1.532-0.422-2.06c-0.283-0.53-0.672-0.944-1.164-1.246
			c-0.492-0.297-1.102-0.502-1.824-0.604c-0.723-0.107-1.523-0.16-2.406-0.16c-1.9,0-3.93,0.369-6.078,1.108
			c-0.49-0.914-0.861-1.776-1.107-2.59c-0.246-0.812-0.369-1.779-0.369-2.908c1.551-0.528,3.1-0.916,4.652-1.161
			c1.551-0.248,2.992-0.371,4.334-0.371c3.664,0,6.523,0.883,8.59,2.643c2.061,1.764,3.096,4.582,3.096,8.459v15.859
			c-1.236,0.389-2.734,0.758-4.494,1.108c-1.764,0.354-3.756,0.528-5.977,0.528c-1.795,0-3.443-0.157-4.941-0.477
			c-1.498-0.316-2.785-0.846-3.857-1.588c-1.076-0.736-1.904-1.689-2.486-2.854c-0.582-1.162-0.873-2.59-0.873-4.283
			c0-1.689,0.363-3.107,1.086-4.254s1.654-2.062,2.801-2.75c1.148-0.688,2.422-1.182,3.832-1.479c1.41-0.301,2.82-0.451,4.23-0.451
			c1.021,0,2.148,0.053,3.383,0.158v-0.631L179.94,205.902L179.94,205.902z M179.94,211.35c-0.422-0.072-0.879-0.135-1.375-0.188
			c-0.494-0.054-0.934-0.08-1.32-0.08c-1.729,0-3.094,0.311-4.098,0.924c-1.006,0.619-1.508,1.615-1.508,2.988
			c0,0.918,0.193,1.623,0.582,2.114c0.387,0.496,0.854,0.854,1.402,1.086c0.547,0.229,1.125,0.369,1.744,0.423
			c0.617,0.053,1.152,0.077,1.611,0.077c0.525,0,1.059-0.043,1.586-0.131c0.529-0.088,0.984-0.166,1.373-0.237v-6.978L179.94,211.35
			L179.94,211.35z"/>
		<path fill="#FFFFFF" d="M192.368,202.254h-3.436l-0.27-1.058l9.887-12.635h1.219v7.983h6.395c0.105,0.528,0.176,1.004,0.213,1.426
			c0.035,0.425,0.055,0.867,0.055,1.324c0,0.492-0.02,0.969-0.055,1.426c-0.037,0.457-0.104,0.97-0.213,1.533h-6.395v10.732
			c0,1.094,0.086,1.973,0.264,2.641c0.178,0.67,0.432,1.201,0.768,1.586c0.336,0.392,0.748,0.652,1.242,0.795
			c0.494,0.142,1.074,0.211,1.746,0.211c0.527,0,1.047-0.043,1.559-0.133c0.51-0.086,0.959-0.166,1.348-0.237
			c0.246,0.67,0.424,1.366,0.529,2.09c0.105,0.722,0.158,1.364,0.158,1.929c0,0.389-0.01,0.715-0.027,0.979s-0.043,0.52-0.078,0.768
			c-1.621,0.389-3.297,0.58-5.021,0.58c-3.209,0-5.654-0.748-7.35-2.246c-1.689-1.494-2.535-3.938-2.535-7.32v-12.371h-0.002
			V202.254z"/>
		<path fill="#FFFFFF" d="M216.057,212.512c0.141,2.113,0.881,3.646,2.219,4.598c1.342,0.953,3.104,1.43,5.287,1.43
			c1.197,0,2.424-0.113,3.674-0.344c1.252-0.229,2.441-0.559,3.568-0.98c0.387,0.707,0.721,1.554,1.006,2.539
			c0.279,0.986,0.438,2.045,0.475,3.17c-2.75,1.06-5.85,1.588-9.303,1.588c-2.539,0-4.713-0.354-6.529-1.059
			c-1.812-0.703-3.295-1.682-4.438-2.932c-1.146-1.252-1.992-2.742-2.537-4.469c-0.549-1.727-0.818-3.611-0.818-5.656
			c0-2.01,0.281-3.895,0.844-5.656c0.564-1.762,1.4-3.297,2.512-4.6c1.109-1.303,2.482-2.334,4.123-3.092
			c1.641-0.76,3.551-1.137,5.736-1.137c1.904,0,3.596,0.334,5.076,1.004c1.479,0.668,2.738,1.586,3.777,2.748
			c1.039,1.164,1.82,2.547,2.354,4.149c0.529,1.604,0.793,3.321,0.793,5.153c0,0.67-0.025,1.332-0.08,1.984
			c-0.053,0.65-0.113,1.172-0.184,1.559h-17.555V212.512z M226.79,207.277c-0.07-1.69-0.539-3.058-1.402-4.101
			c-0.863-1.036-2.068-1.557-3.621-1.557c-1.762,0-3.1,0.492-4.018,1.479s-1.463,2.379-1.639,4.176h10.68V207.277L226.79,207.277z"
			/>
	</g>
	<g>
		<path fill="#B7B2A2" d="M0.167,242.979l5.27-6.734c2.911,2.762,6.156,4.146,9.734,4.146c2.4,0,4.38-0.369,5.936-1.104
			c1.557-0.736,2.334-1.75,2.334-3.039c0-2.188-1.723-3.281-5.168-3.281c-0.936,0-2.324,0.113-4.168,0.348
			c-1.846,0.229-3.234,0.344-4.168,0.344c-5.734,0-8.603-2.129-8.603-6.393c0-1.219,0.479-2.416,1.434-3.59
			c0.955-1.174,2.067-2.039,3.335-2.592C2.034,218.342,0,214.461,0,209.441c0-3.961,1.401-7.235,4.202-9.826
			c2.8-2.592,6.244-3.889,10.334-3.889c3.201,0,5.881,0.624,8.035,1.866l3.27-3.938l5.77,5.427l-3.97,3.004
			c1.38,2.166,2.067,4.719,2.067,7.67c0,4.213-1.239,7.58-3.717,10.104c-2.479,2.521-5.607,3.779-9.387,3.779
			c-0.601,0-1.4-0.055-2.4-0.17l-1.367-0.207c-0.156,0-0.75,0.248-1.783,0.742s-1.551,1.008-1.551,1.537
			c0,0.922,0.768,1.381,2.301,1.381c0.688,0,1.846-0.17,3.469-0.521c1.623-0.345,3.012-0.517,4.166-0.517
			c8.114,0,12.172,3.373,12.172,10.121c0,3.729-1.625,6.662-4.869,8.791c-3.248,2.129-7.158,3.193-11.738,3.193
			C9.536,247.988,4.589,246.32,0.167,242.979z M8.502,209.473c0,2.189,0.584,3.943,1.751,5.268c1.167,1.326,2.739,1.986,4.718,1.986
			s3.501-0.645,4.568-1.936c1.066-1.289,1.601-3.062,1.601-5.318c0-1.865-0.573-3.441-1.718-4.732
			c-1.145-1.289-2.628-1.936-4.451-1.936c-1.912,0-3.469,0.623-4.669,1.865C9.102,205.917,8.502,207.514,8.502,209.473z"/>
		<path fill="#B7B2A2" d="M36.909,191.422h-9.461c-0.211-1.058-0.317-2.166-0.317-3.33c0-1.094,0.106-2.168,0.317-3.225h26.697
			c0.211,1.057,0.315,2.131,0.315,3.225c0,1.164-0.104,2.271-0.315,3.33h-9.464v31.455c-0.635,0.069-1.271,0.131-1.903,0.186
			c-0.635,0.053-1.25,0.08-1.85,0.08s-1.242-0.021-1.93-0.055c-0.688-0.035-1.385-0.105-2.088-0.211L36.909,191.422L36.909,191.422z
			"/>
		<path fill="#B7B2A2" d="M52.452,195.545c0.529-0.105,1.029-0.187,1.507-0.236c0.476-0.055,0.995-0.08,1.56-0.08
			c0.528,0,1.047,0.033,1.559,0.107c0.511,0.067,1.013,0.154,1.507,0.262c0.104,0.178,0.202,0.432,0.291,0.766
			c0.088,0.338,0.167,0.688,0.237,1.059c0.072,0.371,0.133,0.74,0.187,1.111c0.052,0.369,0.097,0.678,0.131,0.926
			c0.776-1.094,1.728-2.07,2.856-2.936c1.127-0.863,2.537-1.297,4.229-1.297c0.352,0,0.758,0.02,1.217,0.055
			c0.457,0.035,0.791,0.088,1.004,0.158c0.069,0.354,0.123,0.758,0.158,1.215c0.036,0.459,0.053,0.936,0.053,1.43
			c0,0.6-0.025,1.25-0.078,1.955s-0.151,1.375-0.291,2.01c-0.387-0.069-0.819-0.104-1.295-0.104s-0.767,0-0.873,0
			c-0.6,0-1.27,0.062-2.008,0.185c-0.74,0.123-1.445,0.449-2.115,0.979c-0.67,0.527-1.225,1.32-1.666,2.379
			c-0.441,1.057-0.66,2.537-0.66,4.441v13.002c-0.635,0.104-1.27,0.178-1.904,0.213c-0.634,0.033-1.25,0.053-1.849,0.053
			c-0.601,0-1.208-0.02-1.825-0.053c-0.616-0.035-1.262-0.105-1.93-0.213V195.545L52.452,195.545z"/>
		<path fill="#B7B2A2" d="M85.09,204.902c0-0.847-0.143-1.532-0.422-2.06c-0.283-0.53-0.672-0.944-1.164-1.246
			c-0.495-0.297-1.104-0.502-1.824-0.604c-0.723-0.107-1.525-0.16-2.406-0.16c-1.902,0-3.929,0.369-6.078,1.108
			c-0.494-0.914-0.864-1.776-1.109-2.59c-0.248-0.812-0.37-1.779-0.37-2.908c1.55-0.528,3.101-0.916,4.651-1.161
			c1.551-0.248,2.996-0.371,4.334-0.371c3.666,0,6.529,0.883,8.592,2.643c2.061,1.764,3.091,4.582,3.091,8.459v15.859
			c-1.233,0.389-2.729,0.758-4.493,1.108c-1.763,0.354-3.753,0.528-5.974,0.528c-1.797,0-3.445-0.157-4.942-0.477
			c-1.498-0.316-2.783-0.844-3.859-1.586c-1.075-0.738-1.903-1.691-2.484-2.854c-0.582-1.164-0.872-2.592-0.872-4.285
			c0-1.688,0.36-3.107,1.083-4.254s1.657-2.062,2.803-2.748c1.146-0.688,2.422-1.184,3.832-1.48
			c1.409-0.299,2.819-0.451,4.229-0.451c1.022,0,2.149,0.055,3.384,0.16V204.902L85.09,204.902z M85.09,210.35
			c-0.422-0.072-0.881-0.135-1.375-0.188c-0.494-0.054-0.936-0.08-1.32-0.08c-1.729,0-3.093,0.311-4.098,0.924
			c-1.005,0.619-1.507,1.615-1.507,2.988c0,0.918,0.192,1.621,0.581,2.114c0.389,0.496,0.854,0.854,1.402,1.086
			c0.545,0.229,1.125,0.369,1.744,0.423c0.616,0.051,1.153,0.077,1.612,0.077c0.528,0,1.058-0.043,1.586-0.131
			s0.985-0.166,1.375-0.237L85.09,210.35L85.09,210.35z"/>
		<path fill="#B7B2A2" d="M96.981,195.545c0.494-0.105,0.987-0.187,1.48-0.236c0.494-0.055,1.039-0.08,1.641-0.08
			c0.598,0,1.127,0.025,1.584,0.08c0.459,0.051,0.934,0.131,1.428,0.236c0.106,0.176,0.203,0.434,0.291,0.768
			s0.168,0.688,0.238,1.057c0.07,0.371,0.133,0.732,0.186,1.084c0.053,0.354,0.097,0.652,0.132,0.898
			c0.353-0.529,0.774-1.059,1.269-1.586c0.494-0.529,1.065-1.004,1.719-1.43c0.65-0.422,1.381-0.767,2.193-1.031
			c0.811-0.262,1.709-0.395,2.696-0.395c3.101,0,5.437,0.844,7.005,2.536c1.564,1.69,2.354,4.354,2.354,7.981v17.445
			c-1.27,0.213-2.52,0.316-3.754,0.316s-2.484-0.104-3.752-0.316v-15.433c0-1.903-0.295-3.364-0.875-4.392
			c-0.58-1.021-1.594-1.53-3.039-1.53c-0.601,0-1.217,0.086-1.852,0.265c-0.633,0.178-1.207,0.52-1.717,1.03
			c-0.512,0.513-0.926,1.226-1.243,2.14c-0.315,0.918-0.476,2.114-0.476,3.596v14.328c-1.269,0.211-2.521,0.315-3.752,0.315
			c-1.235,0-2.485-0.104-3.754-0.315v-27.332H96.981z"/>
		<path fill="#B7B2A2" d="M132.088,210.982c-1.975-0.563-3.516-1.399-4.625-2.513c-1.111-1.108-1.666-2.774-1.666-4.995
			c0-2.675,0.959-4.772,2.881-6.289c1.922-1.515,4.539-2.272,7.85-2.272c1.375,0,2.73,0.125,4.072,0.371
			c1.338,0.245,2.693,0.614,4.07,1.108c-0.07,0.916-0.248,1.868-0.529,2.854s-0.617,1.85-1.004,2.59
			c-0.846-0.354-1.779-0.66-2.801-0.926c-1.025-0.264-2.1-0.396-3.227-0.396c-1.201,0-2.133,0.187-2.803,0.555
			c-0.67,0.371-1.004,0.962-1.004,1.772c0,0.775,0.234,1.32,0.715,1.64c0.475,0.313,1.148,0.617,2.035,0.896l3.012,0.898
			c0.986,0.283,1.879,0.627,2.672,1.033c0.791,0.402,1.471,0.906,2.035,1.506c0.561,0.6,1.002,1.34,1.32,2.223
			c0.314,0.879,0.477,1.953,0.477,3.223c0,1.306-0.273,2.521-0.82,3.648c-0.547,1.127-1.34,2.104-2.379,2.934
			s-2.299,1.479-3.777,1.955c-1.482,0.478-3.156,0.713-5.023,0.713c-0.846,0-1.621-0.024-2.326-0.075
			c-0.707-0.056-1.385-0.144-2.037-0.267c-0.646-0.125-1.293-0.272-1.928-0.449c-0.635-0.178-1.32-0.405-2.061-0.688
			c0.068-0.95,0.236-1.911,0.502-2.881c0.264-0.969,0.607-1.912,1.029-2.83c1.162,0.459,2.266,0.804,3.305,1.033
			c1.041,0.229,2.125,0.342,3.25,0.342c0.494,0,1.031-0.043,1.611-0.131c0.584-0.088,1.121-0.246,1.613-0.478
			c0.494-0.229,0.908-0.528,1.242-0.897c0.336-0.369,0.504-0.854,0.504-1.453c0-0.846-0.258-1.455-0.771-1.823
			c-0.51-0.371-1.223-0.697-2.139-0.979L132.088,210.982z"/>
		<path fill="#B7B2A2" d="M149.833,184.232c1.27-0.209,2.52-0.315,3.754-0.315c1.195,0,2.432,0.106,3.701,0.315v27.756
			c0,1.093,0.061,1.974,0.184,2.642c0.123,0.67,0.316,1.188,0.58,1.561c0.268,0.371,0.609,0.627,1.031,0.768
			c0.424,0.142,0.953,0.211,1.586,0.211c0.283,0,0.59-0.018,0.928-0.055c0.332-0.033,0.66-0.086,0.977-0.156
			c0.387,1.445,0.582,2.854,0.582,4.228c0,0.282,0,0.541,0,0.771c0,0.23-0.035,0.483-0.105,0.766
			c-0.561,0.178-1.24,0.301-2.033,0.371c-0.793,0.068-1.523,0.104-2.195,0.104c-2.713,0-4.887-0.748-6.527-2.246
			c-1.639-1.494-2.457-3.938-2.457-7.32v-29.395h-0.004V184.232z"/>
		<path fill="#B7B2A2" d="M179.94,204.902c0-0.847-0.143-1.532-0.422-2.06c-0.283-0.53-0.672-0.944-1.164-1.246
			c-0.492-0.297-1.102-0.502-1.824-0.604c-0.723-0.107-1.523-0.16-2.406-0.16c-1.9,0-3.93,0.369-6.078,1.108
			c-0.49-0.914-0.861-1.776-1.107-2.59c-0.246-0.812-0.369-1.779-0.369-2.908c1.551-0.528,3.1-0.916,4.652-1.161
			c1.551-0.248,2.992-0.371,4.334-0.371c3.664,0,6.523,0.883,8.59,2.643c2.061,1.764,3.096,4.582,3.096,8.459v15.859
			c-1.236,0.389-2.734,0.758-4.494,1.108c-1.764,0.354-3.756,0.528-5.977,0.528c-1.795,0-3.443-0.157-4.941-0.477
			c-1.498-0.316-2.785-0.844-3.857-1.586c-1.076-0.738-1.904-1.691-2.486-2.854c-0.582-1.164-0.873-2.592-0.873-4.285
			c0-1.688,0.363-3.107,1.086-4.254s1.654-2.062,2.801-2.748c1.146-0.688,2.422-1.184,3.832-1.48c1.41-0.299,2.82-0.451,4.23-0.451
			c1.021,0,2.148,0.055,3.383,0.16v-0.633L179.94,204.902L179.94,204.902z M179.94,210.35c-0.422-0.072-0.879-0.135-1.375-0.188
			c-0.494-0.054-0.934-0.08-1.32-0.08c-1.729,0-3.094,0.311-4.098,0.924c-1.006,0.619-1.508,1.615-1.508,2.988
			c0,0.918,0.193,1.621,0.582,2.114c0.387,0.496,0.854,0.854,1.402,1.086c0.547,0.229,1.125,0.369,1.744,0.423
			c0.617,0.051,1.152,0.077,1.611,0.077c0.525,0,1.059-0.043,1.586-0.131c0.529-0.088,0.984-0.166,1.373-0.237v-6.978L179.94,210.35
			L179.94,210.35z"/>
		<path fill="#B7B2A2" d="M192.368,201.254h-3.436l-0.27-1.058l9.887-12.635h1.219v7.983h6.395c0.105,0.528,0.176,1.004,0.213,1.426
			c0.035,0.425,0.055,0.867,0.055,1.324c0,0.492-0.02,0.969-0.055,1.426c-0.037,0.457-0.104,0.97-0.213,1.533h-6.395v10.732
			c0,1.094,0.086,1.973,0.264,2.641c0.178,0.67,0.432,1.201,0.768,1.586c0.336,0.392,0.748,0.654,1.242,0.795
			c0.494,0.142,1.074,0.211,1.746,0.211c0.527,0,1.047-0.043,1.559-0.133c0.51-0.086,0.959-0.166,1.348-0.237
			c0.246,0.67,0.424,1.366,0.529,2.09c0.105,0.722,0.158,1.364,0.158,1.929c0,0.387-0.01,0.715-0.027,0.979s-0.043,0.52-0.078,0.768
			c-1.621,0.387-3.297,0.58-5.021,0.58c-3.209,0-5.654-0.748-7.35-2.246c-1.689-1.494-2.535-3.938-2.535-7.32v-12.371h-0.002
			V201.254z"/>
		<path fill="#B7B2A2" d="M216.057,211.512c0.141,2.113,0.881,3.646,2.219,4.598c1.342,0.953,3.104,1.43,5.287,1.43
			c1.197,0,2.424-0.113,3.674-0.344c1.252-0.229,2.441-0.559,3.568-0.98c0.387,0.707,0.721,1.554,1.006,2.539
			c0.279,0.986,0.438,2.045,0.475,3.17c-2.75,1.06-5.85,1.588-9.303,1.588c-2.539,0-4.713-0.354-6.529-1.059
			c-1.812-0.703-3.295-1.684-4.438-2.932c-1.146-1.252-1.992-2.742-2.537-4.469c-0.549-1.727-0.818-3.613-0.818-5.658
			c0-2.008,0.281-3.895,0.844-5.656c0.564-1.76,1.4-3.295,2.512-4.598c1.109-1.303,2.482-2.336,4.123-3.092
			c1.641-0.76,3.551-1.139,5.736-1.139c1.904,0,3.596,0.336,5.076,1.004c1.479,0.67,2.738,1.586,3.777,2.75s1.82,2.545,2.354,4.149
			c0.529,1.604,0.793,3.321,0.793,5.153c0,0.67-0.025,1.332-0.08,1.984c-0.053,0.65-0.113,1.17-0.184,1.559L216.057,211.512
			L216.057,211.512z M226.79,206.277c-0.07-1.69-0.539-3.058-1.402-4.101c-0.863-1.036-2.068-1.557-3.621-1.557
			c-1.762,0-3.1,0.492-4.018,1.479s-1.463,2.379-1.639,4.176h10.68V206.277L226.79,206.277z"/>
	</g>
	<rect x="67.708" y="87.854" fill="#DBA20A" stroke="#DBA20A" stroke-miterlimit="10" width="7.442" height="79.927"/>
	<rect x="31.153" y="124.107" fill="#DBA20A" stroke="#DBA20A" stroke-miterlimit="10" width="79.926" height="7.442"/>
</g>
</svg>
