<?xml version="1.0" encoding="UTF-8" standalone="no"?>
<!-- Created with Inkscape (http://www.inkscape.org/) -->

<svg
   xmlns:dc="http://purl.org/dc/elements/1.1/"
   xmlns:cc="http://creativecommons.org/ns#"
   xmlns:rdf="http://www.w3.org/1999/02/22-rdf-syntax-ns#"
   xmlns:svg="http://www.w3.org/2000/svg"
   xmlns="http://www.w3.org/2000/svg"
   xmlns:sodipodi="http://sodipodi.sourceforge.net/DTD/sodipodi-0.dtd"
   xmlns:inkscape="http://www.inkscape.org/namespaces/inkscape"
   id="svg3355"
   version="1.1"
   inkscape:version="0.91 r13725"
   xml:space="preserve"
   width="292.34012"
   height="311.23761"
   viewBox="0 0 292.34012 311.23761"
   sodipodi:docname="logo.svg"><metadata
     id="metadata3361"><rdf:RDF><cc:Work
         rdf:about=""><dc:format>image/svg+xml</dc:format><dc:type
           rdf:resource="http://purl.org/dc/dcmitype/StillImage" /><dc:title></dc:title></cc:Work></rdf:RDF></metadata><defs
     id="defs3359"><clipPath
       clipPathUnits="userSpaceOnUse"
       id="clipPath3369"><path
         d="m 0,529.324 595.28,0 L 595.28,0 0,0 0,529.324 Z"
         id="path3371"
         inkscape:connector-curvature="0" /></clipPath><clipPath
       clipPathUnits="userSpaceOnUse"
       id="clipPath3401"><path
         d="m 0,529.324 595.28,0 L 595.28,0 0,0 0,529.324 Z"
         id="path3403"
         inkscape:connector-curvature="0" /></clipPath></defs><sodipodi:namedview
     pagecolor="#ffffff"
     bordercolor="#666666"
     borderopacity="1"
     objecttolerance="10"
     gridtolerance="10"
     guidetolerance="10"
     inkscape:pageopacity="0"
     inkscape:pageshadow="2"
     inkscape:window-width="1436"
     inkscape:window-height="855"
     id="namedview3357"
     showgrid="false"
     fit-margin-top="0"
     fit-margin-left="0"
     fit-margin-right="0"
     fit-margin-bottom="0"
     inkscape:zoom="0.5"
     inkscape:cx="114.94878"
     inkscape:cy="52.894426"
     inkscape:window-x="4"
     inkscape:window-y="0"
     inkscape:window-maximized="1"
     inkscape:current-layer="g3363" /><g
     id="g3363"
     inkscape:groupmode="layer"
     inkscape:label="GTRANSLATElogo2"
     transform="matrix(1.25,0,0,-1.25,-231.05825,542.54575)"><g
       id="g3365"><g
         id="g3367"
         clip-path="url(#clipPath3369)"><g
           id="g3373"
           transform="translate(291.7686,339.6338)"><path
             d="m 0,0 c 5.178,-5.521 8.917,-12.041 11.022,-19.173 2.14,7.077 5.91,13.519 11.109,18.927 C 18.686,-1.034 15.156,-1.432 11.578,-1.432 7.638,-1.432 3.764,-0.952 0,0 m -35.305,-81.085 c -12.769,0.004 -24.841,5.014 -33.932,14.106 -7.654,7.653 -12.512,17.708 -13.769,28.444 l -0.134,0 -0.088,1.487 -0.01,1.139 c -0.896,13.723 4.206,27.26 14.001,37.055 9.098,9.099 21.196,14.109 34.065,14.109 4.124,0 8.169,-0.51 12.089,-1.524 -8.083,8.739 -12.512,20.029 -12.512,31.999 0,12.6 4.907,24.446 13.818,33.355 8.909,8.91 20.755,13.817 33.355,13.817 12.6,0 24.445,-4.907 33.355,-13.817 8.91,-8.909 13.817,-20.755 13.817,-33.355 0,-12.28 -4.661,-23.844 -13.146,-32.671 3.45,0.79 6.985,1.189 10.568,1.189 12.596,0 24.436,-4.904 33.341,-13.809 8.91,-8.91 13.817,-20.755 13.817,-33.356 0,-12.599 -4.907,-24.445 -13.817,-33.354 -8.909,-8.911 -20.755,-13.818 -33.356,-13.818 -12.6,0 -24.446,4.907 -33.355,13.818 -5.547,5.546 -9.549,12.233 -11.78,19.61 -2.252,-7.632 -6.376,-14.564 -12.132,-20.318 -9.075,-9.077 -21.138,-14.085 -33.974,-14.109 l -0.031,-0.002 -0.19,0.005 z"
             style="fill:#ffffff;fill-opacity:1;fill-rule:nonzero;stroke:none"
             id="path3375"
             inkscape:connector-curvature="0" /></g><g
           id="g3377"
           transform="translate(302.8076,325.0176)"><path
             d="m 0,0 c -1.736,4.394 -4.102,8.515 -7.05,12.272 2.495,-0.391 5.029,-0.587 7.589,-0.587 2.215,0 4.411,0.147 6.582,0.441 C 4.151,8.431 1.761,4.355 0,0 m 0.539,109.019 c -13.001,0 -25.223,-5.063 -34.416,-14.257 -9.193,-9.192 -14.257,-21.415 -14.257,-34.416 0,-10.857 3.531,-21.171 10.051,-29.632 -2.667,0.437 -5.381,0.658 -8.128,0.658 -13.269,0 -25.744,-5.167 -35.125,-14.549 -10.081,-10.08 -15.341,-24.004 -14.44,-38.213 l 0.009,-1.055 0.026,-2.974 0.379,0 c 1.529,-10.57 6.448,-20.429 14.026,-28.005 9.358,-9.36 21.783,-14.524 34.99,-14.547 l 0.012,0 0.193,-0.008 0.087,0.007 c 13.21,0.041 25.624,5.204 34.966,14.548 4.878,4.878 8.62,10.577 11.088,16.823 2.42,-5.987 6.03,-11.444 10.702,-16.115 9.193,-9.194 21.415,-14.257 34.416,-14.257 13.001,0 25.224,5.063 34.416,14.257 9.194,9.193 14.257,21.415 14.257,34.416 0,13.001 -5.063,25.223 -14.257,34.416 -9.187,9.188 -21.405,14.248 -34.401,14.248 -2.22,0 -4.421,-0.148 -6.597,-0.443 6.917,8.604 10.675,19.226 10.675,30.425 0,13.001 -5.064,25.224 -14.257,34.417 -9.192,9.193 -21.414,14.256 -34.415,14.256 M -0.036,-11.46 c 1.404,9.316 5.686,18.282 12.859,25.455 1.383,1.382 2.838,2.645 4.344,3.813 -5.336,-2.083 -10.98,-3.123 -16.628,-3.123 -6.046,0 -12.094,1.193 -17.758,3.582 1.391,-1.107 2.734,-2.29 4.009,-3.565 C -6.028,7.52 -1.477,-1.59 -0.036,-11.46 m 0.575,117.479 c 11.689,0 23.376,-4.459 32.294,-13.378 17.837,-17.836 17.837,-46.754 0,-64.59 -1.383,-1.383 -2.839,-2.645 -4.345,-3.814 5.34,2.085 10.992,3.127 16.645,3.127 11.683,0 23.365,-4.455 32.28,-13.369 17.837,-17.836 17.837,-46.754 0,-64.59 -8.918,-8.919 -20.606,-13.378 -32.295,-13.378 -11.688,0 -23.377,4.459 -32.295,13.378 -7.173,7.173 -11.455,16.138 -12.859,25.454 -1.441,-9.87 -5.991,-18.98 -13.174,-26.162 -8.808,-8.809 -20.519,-13.663 -32.978,-13.669 l -0.023,-0.002 -0.071,0.003 c -12.412,0.006 -24.126,4.861 -32.933,13.668 -7.752,7.751 -12.515,17.977 -13.477,28.884 l -0.075,0 -0.01,1.139 c -0.87,13.354 4.072,26.492 13.562,35.982 8.815,8.815 20.538,13.67 33.004,13.67 6.364,0 12.53,-1.272 18.218,-3.684 -1.299,1.042 -2.558,2.159 -3.763,3.363 -17.837,17.836 -17.837,46.754 0,64.59 8.918,8.919 20.607,13.378 32.295,13.378"
             style="fill:#ffffff;fill-opacity:1;fill-rule:nonzero;stroke:none"
             id="path3379"
             inkscape:connector-curvature="0" /></g><g
           id="g3381"
           transform="translate(293.1309,377.7793)"><path
             d="m 0,0 c 0,-4.382 2.539,-6.573 7.622,-6.573 6.847,0 10.27,3.424 10.27,10.27 l 0,4.565 C 15.943,8.657 14.483,8.854 13.51,8.854 4.503,8.854 0,5.903 0,0"
             style="fill:#8b3084;fill-opacity:1;fill-rule:nonzero;stroke:none"
             id="path3383"
             inkscape:connector-curvature="0" /></g><g
           id="g3385"
           transform="translate(323.1641,362.6943)"><path
             d="m 0,0 c -1.156,-0.381 -2.48,-0.571 -3.972,-0.571 -1.643,0 -3.119,0.609 -4.426,1.826 -1.309,1.217 -2.192,2.54 -2.648,3.971 -1.034,-1.705 -2.838,-3.097 -5.409,-4.176 -2.571,-1.08 -5.257,-1.621 -8.056,-1.621 -5.264,0 -9.403,1.316 -12.415,3.948 -3.012,2.632 -4.519,6.368 -4.519,11.206 0,5.66 2.123,10.087 6.367,13.282 4.246,3.196 10.277,4.793 18.098,4.793 1.339,0 2.921,-0.229 4.748,-0.685 0,5.752 -3.637,8.627 -10.911,8.627 -4.289,0 -7.88,-0.715 -10.771,-2.145 l -2.465,8.855 c 3.926,1.886 8.597,2.83 14.014,2.83 7.455,0 12.917,-1.697 16.386,-5.09 3.468,-3.393 5.203,-9.821 5.203,-19.284 l 0,-10.453 C -0.776,8.801 0.531,4.708 3.149,3.035 2.205,1.392 1.156,0.38 0,0 m 12.152,54.836 c -17.835,17.837 -46.753,17.837 -64.589,0 -17.836,-17.836 -17.836,-46.753 0,-64.589 17.836,-17.837 46.754,-17.837 64.589,0 17.837,17.836 17.837,46.753 0,64.589"
             style="fill:#8b3084;fill-opacity:1;fill-rule:nonzero;stroke:none"
             id="path3387"
             inkscape:connector-curvature="0" /></g><g
           id="g3389"
           transform="translate(252.5381,344.9761)"><path
             d="m 0,0 0,-35.037 -15.787,0 c 0.2,4.477 0.802,8.815 1.791,12.91 1.171,4.847 2.824,9.164 4.915,12.829 1.92,3.363 4.175,6.059 6.52,7.798 0.842,0.624 1.699,1.125 2.561,1.5 m -14.332,-3.577 c -5.236,-8.056 -8.436,-19.248 -8.934,-31.46 l -12.059,0 c 0.777,9.195 4.777,17.814 11.335,24.371 2.874,2.874 6.11,5.249 9.658,7.089 m -8.892,-38.928 c 0.6,-11.908 3.784,-22.821 8.894,-30.693 -3.548,1.841 -6.786,4.216 -9.66,7.089 -6.357,6.358 -10.33,14.704 -11.258,23.604 l 12.024,0 z m 23.224,0 0,-34.269 c -0.862,0.375 -1.72,0.877 -2.561,1.501 -2.345,1.737 -4.599,4.434 -6.519,7.796 -2.091,3.665 -3.745,7.981 -4.916,12.83 -0.928,3.843 -1.516,7.923 -1.747,12.142 l 15.743,0 z m 42.791,7.468 -12.059,0 c -0.498,12.214 -3.697,23.404 -8.931,31.46 3.546,-1.841 6.782,-4.215 9.655,-7.089 6.558,-6.557 10.559,-15.176 11.335,-24.371 m -0.077,-7.468 c -0.928,-8.9 -4.901,-17.246 -11.259,-23.604 -2.873,-2.873 -6.109,-5.248 -9.656,-7.089 5.108,7.873 8.291,18.785 8.89,30.693 l 12.025,0 z M 7.468,-35.037 7.468,0 c 0.862,-0.375 1.72,-0.877 2.561,-1.5 2.347,-1.739 4.601,-4.436 6.52,-7.798 2.094,-3.67 3.748,-7.986 4.917,-12.83 0.989,-4.101 1.591,-8.439 1.791,-12.909 l -15.789,0 z m 15.746,-7.468 c -0.233,-4.213 -0.819,-8.293 -1.748,-12.143 -1.169,-4.843 -2.823,-9.159 -4.917,-12.829 -1.92,-3.362 -4.174,-6.059 -6.52,-7.796 -0.841,-0.624 -1.699,-1.126 -2.561,-1.501 l 0,34.269 15.746,0 z m 13.521,37.12 C 27.921,3.431 16.201,8.285 3.734,8.285 c -12.465,0 -24.189,-4.854 -33.004,-13.67 -9.489,-9.489 -14.432,-22.627 -13.562,-35.981 l 0.01,-1.139 0.075,0 c 0.962,-10.908 5.726,-21.133 13.477,-28.884 8.807,-8.808 20.521,-13.662 32.933,-13.668 l 0.071,-0.003 0.023,0.001 c 12.459,0.006 24.171,4.861 32.978,13.67 8.817,8.815 13.671,20.535 13.671,33.002 0,12.467 -4.854,24.187 -13.671,33.002"
             style="fill:#dba20a;fill-opacity:1;fill-rule:nonzero;stroke:none"
             id="path3391"
             inkscape:connector-curvature="0" /></g><g
           id="g3393"
           transform="translate(361.0078,278.1431)"><path
             d="M 0,0 -11.563,15.588 -21.173,4.07 -34.612,58.106 13.203,29.575 -0.604,23.717 10.959,8.13 0,0 Z m 18.889,60.741 c -17.836,17.836 -46.754,17.836 -64.59,0 -17.836,-17.836 -17.836,-46.754 0,-64.59 17.836,-17.837 46.754,-17.837 64.59,0 17.837,17.836 17.837,46.754 0,64.59"
             style="fill:#307394;fill-opacity:1;fill-rule:nonzero;stroke:none"
             id="path3395"
             inkscape:connector-curvature="0" /></g></g></g><g
       id="g3397"><g
         id="g3399"
         clip-path="url(#clipPath3401)"><g
           id="g3405"
           transform="translate(193.3486,223.5615)"><path
             d="m 0,0 c 0,-2.189 0.584,-3.943 1.751,-5.267 1.167,-1.326 2.739,-1.986 4.718,-1.986 1.978,0 3.501,0.645 4.568,1.935 1.067,1.289 1.6,3.06 1.6,5.318 0,1.866 -0.573,3.442 -1.718,4.733 C 9.775,6.022 8.291,6.667 6.469,6.667 4.557,6.667 3,6.045 1.8,4.802 0.6,3.557 0,1.958 0,0 m -8.336,-33.505 5.269,6.734 c 2.911,-2.761 6.156,-4.144 9.735,-4.144 2.401,0 4.38,0.369 5.935,1.105 1.557,0.737 2.335,1.75 2.335,3.039 0,2.188 -1.723,3.282 -5.168,3.282 -0.935,0 -2.324,-0.114 -4.169,-0.346 -1.845,-0.23 -3.233,-0.344 -4.167,-0.344 -5.735,0 -8.603,2.129 -8.603,6.391 0,1.219 0.478,2.418 1.434,3.592 0.955,1.174 2.067,2.039 3.335,2.59 -4.069,2.74 -6.102,6.621 -6.102,11.642 0,3.96 1.4,7.235 4.201,9.826 2.8,2.591 6.245,3.888 10.336,3.888 3.201,0 5.88,-0.624 8.035,-1.867 l 3.268,3.939 5.769,-5.425 -3.968,-3.003 c 1.379,-2.168 2.067,-4.721 2.067,-7.67 0,-4.213 -1.239,-7.581 -3.718,-10.104 -2.478,-2.521 -5.607,-3.781 -9.386,-3.781 -0.6,0 -1.4,0.057 -2.401,0.17 l -1.367,0.209 c -0.156,0 -0.75,-0.248 -1.783,-0.742 C 1.517,-15.019 1,-15.534 1,-16.062 c 0,-0.921 0.768,-1.38 2.301,-1.38 0.688,0 1.845,0.17 3.468,0.519 1.623,0.344 3.011,0.516 4.167,0.516 8.114,0 12.171,-3.373 12.171,-10.121 0,-3.731 -1.624,-6.662 -4.868,-8.791 -3.247,-2.129 -7.158,-3.196 -11.738,-3.196 -5.468,0 -10.414,1.668 -14.837,5.01"
             style="fill:#ffffff;fill-opacity:1;fill-rule:nonzero;stroke:none"
             id="path3407"
             inkscape:connector-curvature="0" /></g><g
           id="g3409"
           transform="translate(221.7563,241.6118)"><path
             d="m 0,0 -9.462,0 c -0.211,1.058 -0.318,2.167 -0.318,3.331 0,1.092 0.107,2.168 0.318,3.224 l 26.696,0 C 17.446,5.499 17.55,4.423 17.55,3.331 17.55,2.167 17.446,1.058 17.234,0 l -9.463,0 0,-31.454 c -0.635,-0.07 -1.269,-0.13 -1.903,-0.185 -0.635,-0.053 -1.25,-0.08 -1.849,-0.08 -0.601,0 -1.244,0.019 -1.931,0.052 -0.687,0.038 -1.384,0.108 -2.088,0.213 L 0,0 Z"
             style="fill:#ffffff;fill-opacity:1;fill-rule:nonzero;stroke:none"
             id="path3411"
             inkscape:connector-curvature="0" /></g><g
           id="g3413"
           transform="translate(237.2979,237.4883)"><path
             d="m 0,0 c 0.529,0.106 1.03,0.186 1.507,0.238 0.475,0.054 0.995,0.08 1.559,0.08 0.529,0 1.048,-0.035 1.559,-0.109 0.511,-0.068 1.013,-0.155 1.507,-0.262 0.105,-0.176 0.202,-0.431 0.291,-0.766 0.088,-0.337 0.167,-0.686 0.238,-1.057 0.071,-0.371 0.132,-0.741 0.185,-1.111 0.052,-0.369 0.096,-0.678 0.131,-0.926 0.776,1.093 1.727,2.07 2.856,2.935 1.127,0.863 2.538,1.296 4.229,1.296 0.351,0 0.757,-0.019 1.216,-0.054 0.458,-0.035 0.792,-0.088 1.004,-0.158 0.07,-0.354 0.123,-0.758 0.158,-1.216 0.036,-0.458 0.053,-0.934 0.053,-1.429 0,-0.599 -0.026,-1.25 -0.079,-1.954 -0.052,-0.705 -0.151,-1.375 -0.291,-2.009 -0.387,0.069 -0.819,0.106 -1.294,0.106 l -0.872,0 c -0.6,0 -1.27,-0.062 -2.01,-0.186 C 11.207,-6.705 10.502,-7.03 9.833,-7.56 9.163,-8.087 8.608,-8.879 8.167,-9.938 7.726,-10.995 7.507,-12.476 7.507,-14.38 l 0,-13.003 c -0.635,-0.105 -1.27,-0.176 -1.904,-0.213 -0.634,-0.033 -1.25,-0.05 -1.849,-0.05 -0.6,0 -1.208,0.017 -1.825,0.05 -0.616,0.037 -1.261,0.108 -1.929,0.213 L 0,0 Z"
             style="fill:#ffffff;fill-opacity:1;fill-rule:nonzero;stroke:none"
             id="path3415"
             inkscape:connector-curvature="0" /></g><g
           id="g3417"
           transform="translate(269.937,222.6846)"><path
             d="m 0,0 c -0.422,0.072 -0.881,0.134 -1.375,0.188 -0.494,0.052 -0.935,0.079 -1.321,0.079 -1.728,0 -3.093,-0.31 -4.097,-0.924 -1.005,-0.618 -1.507,-1.615 -1.507,-2.988 0,-0.917 0.193,-1.622 0.581,-2.115 0.389,-0.495 0.854,-0.855 1.402,-1.085 0.546,-0.229 1.126,-0.369 1.744,-0.422 0.616,-0.052 1.153,-0.079 1.612,-0.079 0.528,0 1.058,0.043 1.586,0.132 0.528,0.088 0.985,0.165 1.375,0.238 L 0,0 Z m 0,5.448 c 0,0.846 -0.142,1.532 -0.422,2.059 -0.283,0.53 -0.672,0.944 -1.164,1.245 -0.495,0.298 -1.103,0.502 -1.825,0.606 -0.722,0.106 -1.525,0.16 -2.405,0.16 -1.903,0 -3.93,-0.371 -6.079,-1.111 -0.493,0.915 -0.864,1.779 -1.11,2.591 -0.247,0.81 -0.37,1.779 -0.37,2.908 1.55,0.528 3.101,0.915 4.651,1.162 1.551,0.246 2.996,0.37 4.335,0.37 3.665,0 6.529,-0.882 8.592,-2.642 2.06,-1.763 3.091,-4.583 3.091,-8.459 l 0,-15.859 c -1.233,-0.389 -2.731,-0.758 -4.494,-1.11 -1.761,-0.353 -3.752,-0.529 -5.973,-0.529 -1.797,0 -3.445,0.158 -4.943,0.476 -1.497,0.317 -2.783,0.844 -3.859,1.586 -1.074,0.739 -1.902,1.692 -2.484,2.853 -0.582,1.164 -0.872,2.591 -0.872,4.285 0,1.689 0.36,3.108 1.083,4.253 0.723,1.147 1.657,2.062 2.802,2.749 1.146,0.688 2.423,1.182 3.833,1.48 1.409,0.3 2.82,0.451 4.229,0.451 1.023,0 2.15,-0.054 3.384,-0.159 l 0,0.635 z"
             style="fill:#ffffff;fill-opacity:1;fill-rule:nonzero;stroke:none"
             id="path3419"
             inkscape:connector-curvature="0" /></g><g
           id="g3421"
           transform="translate(281.8281,237.4883)"><path
             d="m 0,0 c 0.494,0.106 0.987,0.186 1.48,0.238 0.494,0.054 1.039,0.08 1.64,0.08 0.598,0 1.127,-0.026 1.585,-0.08 C 5.163,0.186 5.639,0.106 6.133,0 6.239,-0.176 6.335,-0.432 6.423,-0.766 6.511,-1.101 6.59,-1.453 6.661,-1.823 6.731,-2.194 6.793,-2.555 6.846,-2.907 6.899,-3.26 6.943,-3.56 6.978,-3.806 c 0.352,0.528 0.775,1.056 1.269,1.585 0.494,0.53 1.066,1.004 1.718,1.429 0.651,0.422 1.382,0.766 2.194,1.03 0.81,0.263 1.709,0.396 2.696,0.396 3.101,0 5.437,-0.844 7.004,-2.537 1.567,-1.692 2.354,-4.354 2.354,-7.983 l 0,-17.444 c -1.271,-0.213 -2.522,-0.316 -3.753,-0.316 -1.235,0 -2.485,0.103 -3.753,0.316 l 0,15.435 c 0,1.904 -0.294,3.365 -0.874,4.391 -0.581,1.019 -1.595,1.53 -3.04,1.53 -0.6,0 -1.216,-0.087 -1.851,-0.263 C 10.309,-6.415 9.735,-6.757 9.225,-7.269 8.714,-7.78 8.3,-8.493 7.982,-9.408 7.666,-10.326 7.506,-11.523 7.506,-13.004 l 0,-14.326 c -1.267,-0.213 -2.519,-0.316 -3.752,-0.316 -1.235,0 -2.485,0.103 -3.754,0.316 L 0,0 Z"
             style="fill:#ffffff;fill-opacity:1;fill-rule:nonzero;stroke:none"
             id="path3423"
             inkscape:connector-curvature="0" /></g><g
           id="g3425"
           transform="translate(316.9346,222.0532)"><path
             d="m 0,0 c -1.975,0.563 -3.516,1.4 -4.625,2.511 -1.111,1.109 -1.666,2.776 -1.666,4.996 0,2.675 0.96,4.773 2.881,6.289 1.921,1.515 4.538,2.273 7.849,2.273 1.374,0 2.731,-0.123 4.073,-0.37 1.338,-0.247 2.694,-0.616 4.07,-1.109 -0.071,-0.917 -0.248,-1.868 -0.529,-2.855 -0.282,-0.987 -0.618,-1.85 -1.005,-2.59 -0.845,0.351 -1.778,0.66 -2.8,0.925 -1.025,0.263 -2.099,0.396 -3.227,0.396 -1.2,0 -2.131,-0.185 -2.801,-0.555 C 1.55,9.541 1.215,8.95 1.215,8.138 1.215,7.364 1.453,6.818 1.93,6.5 2.404,6.185 3.082,5.884 3.965,5.604 l 3.013,-0.9 c 0.986,-0.282 1.877,-0.626 2.67,-1.032 0.791,-0.403 1.471,-0.907 2.036,-1.505 0.562,-0.601 1.002,-1.34 1.32,-2.223 0.317,-0.88 0.476,-1.953 0.476,-3.222 0,-1.305 -0.273,-2.519 -0.819,-3.648 -0.548,-1.128 -1.341,-2.106 -2.38,-2.934 -1.038,-0.83 -2.299,-1.48 -3.778,-1.955 -1.482,-0.477 -3.155,-0.715 -5.023,-0.715 -0.846,0 -1.621,0.026 -2.327,0.078 -0.706,0.055 -1.383,0.143 -2.036,0.266 -0.65,0.125 -1.294,0.273 -1.929,0.449 -0.634,0.176 -1.32,0.404 -2.06,0.688 0.069,0.951 0.238,1.912 0.503,2.881 0.264,0.968 0.608,1.912 1.03,2.829 1.162,-0.458 2.264,-0.804 3.304,-1.033 1.04,-0.228 2.124,-0.342 3.25,-0.342 0.494,0 1.032,0.043 1.612,0.131 0.584,0.088 1.12,0.247 1.612,0.477 0.496,0.229 0.909,0.528 1.244,0.898 0.335,0.37 0.503,0.854 0.503,1.454 0,0.846 -0.257,1.454 -0.77,1.823 -0.51,0.37 -1.223,0.696 -2.139,0.979 L 0,0 Z"
             style="fill:#ffffff;fill-opacity:1;fill-rule:nonzero;stroke:none"
             id="path3427"
             inkscape:connector-curvature="0" /></g><g
           id="g3429"
           transform="translate(334.6787,248.8018)"><path
             d="M 0,0 C 1.27,0.209 2.52,0.316 3.754,0.316 4.95,0.316 6.186,0.209 7.455,0 l 0,-27.755 c 0,-1.093 0.061,-1.973 0.184,-2.641 0.123,-0.669 0.317,-1.191 0.58,-1.56 0.266,-0.37 0.609,-0.627 1.032,-0.768 0.423,-0.139 0.952,-0.21 1.586,-0.21 0.282,0 0.59,0.017 0.926,0.053 0.333,0.034 0.661,0.087 0.977,0.157 0.387,-1.445 0.581,-2.853 0.581,-4.226 l 0,-0.77 c 0,-0.228 -0.035,-0.484 -0.105,-0.765 -0.564,-0.176 -1.242,-0.299 -2.035,-0.371 -0.793,-0.069 -1.525,-0.104 -2.196,-0.104 -2.713,0 -4.887,0.748 -6.528,2.246 C 0.819,-35.218 0,-32.776 0,-29.393 L 0,0 Z"
             style="fill:#ffffff;fill-opacity:1;fill-rule:nonzero;stroke:none"
             id="path3431"
             inkscape:connector-curvature="0" /></g><g
           id="g3433"
           transform="translate(364.7861,222.6846)"><path
             d="m 0,0 c -0.422,0.072 -0.879,0.134 -1.374,0.188 -0.495,0.052 -0.933,0.079 -1.32,0.079 -1.729,0 -3.095,-0.31 -4.099,-0.924 -1.005,-0.618 -1.507,-1.615 -1.507,-2.988 0,-0.917 0.194,-1.622 0.581,-2.115 0.388,-0.495 0.856,-0.855 1.404,-1.085 0.546,-0.229 1.126,-0.369 1.744,-0.422 0.617,-0.052 1.152,-0.079 1.611,-0.079 0.528,0 1.059,0.043 1.586,0.132 0.529,0.088 0.986,0.165 1.374,0.238 L 0,0 Z m 0,5.448 c 0,0.846 -0.141,1.532 -0.422,2.059 -0.283,0.53 -0.672,0.944 -1.163,1.245 -0.493,0.298 -1.102,0.502 -1.824,0.606 -0.723,0.106 -1.525,0.16 -2.406,0.16 -1.904,0 -3.93,-0.371 -6.08,-1.111 -0.493,0.915 -0.863,1.779 -1.109,2.591 -0.247,0.81 -0.369,1.779 -0.369,2.908 1.55,0.528 3.099,0.915 4.652,1.162 1.55,0.246 2.994,0.37 4.334,0.37 3.664,0 6.527,-0.882 8.59,-2.642 2.063,-1.763 3.095,-4.583 3.095,-8.459 l 0,-15.859 c -1.236,-0.389 -2.734,-0.758 -4.494,-1.11 -1.764,-0.353 -3.755,-0.529 -5.976,-0.529 -1.795,0 -3.444,0.158 -4.941,0.476 -1.499,0.317 -2.785,0.844 -3.86,1.586 -1.076,0.739 -1.903,1.692 -2.486,2.853 -0.581,1.164 -0.872,2.591 -0.872,4.285 0,1.689 0.362,3.108 1.085,4.253 0.723,1.147 1.655,2.062 2.802,2.749 1.145,0.688 2.422,1.182 3.832,1.48 1.41,0.3 2.819,0.451 4.229,0.451 1.023,0 2.151,-0.054 3.383,-0.159 l 0,0.635 z"
             style="fill:#ffffff;fill-opacity:1;fill-rule:nonzero;stroke:none"
             id="path3435"
             inkscape:connector-curvature="0" /></g><g
           id="g3437"
           transform="translate(377.2148,231.7798)"><path
             d="m 0,0 -3.437,0 -0.265,1.058 9.885,12.633 1.217,0 0,-7.983 6.396,0 C 13.902,5.18 13.973,4.704 14.009,4.282 14.044,3.857 14.061,3.416 14.061,2.959 14.061,2.467 14.044,1.99 14.009,1.532 13.973,1.075 13.902,0.563 13.796,0 L 7.4,0 l 0,-10.733 c 0,-1.093 0.086,-1.973 0.264,-2.641 0.178,-0.669 0.431,-1.201 0.767,-1.585 0.335,-0.391 0.748,-0.654 1.242,-0.795 0.495,-0.141 1.075,-0.211 1.746,-0.211 0.527,0 1.047,0.043 1.559,0.132 0.509,0.086 0.959,0.166 1.347,0.239 0.245,-0.671 0.423,-1.367 0.529,-2.09 0.106,-0.721 0.16,-1.365 0.16,-1.928 0,-0.388 -0.01,-0.715 -0.029,-0.978 -0.017,-0.264 -0.043,-0.52 -0.079,-0.768 -1.621,-0.387 -3.296,-0.58 -5.021,-0.58 -3.208,0 -5.656,0.748 -7.35,2.246 C 0.846,-18.196 0,-15.754 0,-12.371 L 0,0 Z"
             style="fill:#ffffff;fill-opacity:1;fill-rule:nonzero;stroke:none"
             id="path3439"
             inkscape:connector-curvature="0" /></g><g
           id="g3441"
           transform="translate(411.6357,226.7573)"><path
             d="m 0,0 c -0.071,1.69 -0.539,3.057 -1.402,4.099 -0.864,1.037 -2.07,1.556 -3.622,1.556 -1.76,0 -3.099,-0.492 -4.017,-1.479 C -9.958,3.189 -10.504,1.796 -10.68,0 L 0,0 Z m -10.731,-5.235 c 0.139,-2.113 0.879,-3.647 2.218,-4.598 1.341,-0.952 3.103,-1.427 5.286,-1.427 1.199,0 2.424,0.113 3.675,0.343 1.252,0.229 2.441,0.556 3.569,0.98 0.386,-0.707 0.72,-1.553 1.004,-2.539 0.282,-0.986 0.44,-2.045 0.476,-3.17 -2.75,-1.059 -5.85,-1.588 -9.303,-1.588 -2.539,0 -4.714,0.354 -6.529,1.059 -1.816,0.703 -3.296,1.681 -4.441,2.931 -1.145,1.252 -1.992,2.743 -2.537,4.468 -0.548,1.727 -0.819,3.612 -0.819,5.657 0,2.009 0.281,3.894 0.845,5.656 0.563,1.761 1.4,3.296 2.511,4.599 1.109,1.302 2.482,2.335 4.123,3.092 1.639,0.759 3.55,1.137 5.736,1.137 1.904,0 3.595,-0.335 5.076,-1.004 C 1.639,9.692 2.898,8.775 3.938,7.613 4.977,6.449 5.761,5.066 6.29,3.462 6.819,1.858 7.083,0.141 7.083,-1.691 7.083,-2.362 7.057,-3.023 7.004,-3.676 6.951,-4.327 6.89,-4.847 6.819,-5.235 l -17.55,0 z"
             style="fill:#ffffff;fill-opacity:1;fill-rule:nonzero;stroke:none"
             id="path3443"
             inkscape:connector-curvature="0" /></g><g
           id="g3445"
           transform="translate(193.3486,224.5615)"><path
             d="m 0,0 c 0,-2.189 0.584,-3.943 1.751,-5.267 1.167,-1.325 2.739,-1.986 4.718,-1.986 1.978,0 3.501,0.644 4.568,1.935 1.067,1.289 1.6,3.06 1.6,5.318 0,1.866 -0.573,3.442 -1.718,4.733 C 9.775,6.022 8.291,6.667 6.469,6.667 4.557,6.667 3,6.045 1.8,4.802 0.6,3.557 0,1.958 0,0 m -8.336,-33.505 5.269,6.734 c 2.911,-2.761 6.156,-4.144 9.735,-4.144 2.401,0 4.38,0.369 5.935,1.105 1.557,0.737 2.335,1.75 2.335,3.039 0,2.188 -1.723,3.282 -5.168,3.282 -0.935,0 -2.324,-0.114 -4.169,-0.346 -1.845,-0.23 -3.233,-0.344 -4.167,-0.344 -5.735,0 -8.603,2.129 -8.603,6.391 0,1.219 0.478,2.417 1.434,3.591 0.955,1.174 2.067,2.039 3.335,2.591 -4.069,2.74 -6.102,6.621 -6.102,11.642 0,3.96 1.4,7.235 4.201,9.826 2.8,2.591 6.245,3.888 10.336,3.888 3.201,0 5.88,-0.624 8.035,-1.867 l 3.268,3.939 5.769,-5.425 -3.968,-3.003 c 1.379,-2.168 2.067,-4.721 2.067,-7.67 0,-4.213 -1.239,-7.581 -3.718,-10.103 -2.478,-2.522 -5.607,-3.782 -9.386,-3.782 -0.6,0 -1.4,0.056 -2.401,0.17 l -1.367,0.208 c -0.156,0 -0.75,-0.248 -1.783,-0.742 C 1.517,-15.019 1,-15.534 1,-16.062 c 0,-0.921 0.768,-1.38 2.301,-1.38 0.688,0 1.845,0.17 3.468,0.519 1.623,0.344 3.011,0.516 4.167,0.516 8.114,0 12.171,-3.373 12.171,-10.121 0,-3.731 -1.624,-6.662 -4.868,-8.791 -3.247,-2.129 -7.158,-3.196 -11.738,-3.196 -5.468,0 -10.414,1.668 -14.837,5.01"
             style="fill:#b7b2a2;fill-opacity:1;fill-rule:nonzero;stroke:none"
             id="path3447"
             inkscape:connector-curvature="0" /></g><g
           id="g3449"
           transform="translate(221.7563,242.6118)"><path
             d="m 0,0 -9.462,0 c -0.211,1.058 -0.318,2.167 -0.318,3.331 0,1.092 0.107,2.168 0.318,3.224 l 26.696,0 C 17.446,5.499 17.55,4.423 17.55,3.331 17.55,2.167 17.446,1.058 17.234,0 l -9.463,0 0,-31.454 c -0.635,-0.07 -1.269,-0.131 -1.903,-0.185 -0.635,-0.053 -1.25,-0.08 -1.849,-0.08 -0.601,0 -1.244,0.02 -1.931,0.053 C 1.401,-31.63 0.704,-31.56 0,-31.454 L 0,0 Z"
             style="fill:#b7b2a2;fill-opacity:1;fill-rule:nonzero;stroke:none"
             id="path3451"
             inkscape:connector-curvature="0" /></g><g
           id="g3453"
           transform="translate(237.2979,238.4883)"><path
             d="m 0,0 c 0.529,0.106 1.03,0.186 1.507,0.238 0.475,0.054 0.995,0.08 1.559,0.08 0.529,0 1.048,-0.035 1.559,-0.109 0.511,-0.068 1.013,-0.155 1.507,-0.262 0.105,-0.176 0.202,-0.431 0.291,-0.766 0.088,-0.337 0.167,-0.686 0.238,-1.057 0.071,-0.371 0.132,-0.741 0.185,-1.111 0.052,-0.369 0.096,-0.678 0.131,-0.926 0.776,1.093 1.727,2.07 2.856,2.935 1.127,0.863 2.538,1.296 4.229,1.296 0.351,0 0.757,-0.019 1.216,-0.054 0.458,-0.035 0.792,-0.088 1.004,-0.158 0.07,-0.354 0.123,-0.758 0.158,-1.216 0.036,-0.458 0.053,-0.934 0.053,-1.429 0,-0.599 -0.026,-1.25 -0.079,-1.954 -0.052,-0.705 -0.151,-1.375 -0.291,-2.009 -0.387,0.069 -0.819,0.106 -1.294,0.106 l -0.872,0 c -0.6,0 -1.27,-0.062 -2.01,-0.186 C 11.207,-6.705 10.502,-7.03 9.833,-7.56 9.163,-8.087 8.608,-8.879 8.167,-9.938 7.726,-10.995 7.507,-12.476 7.507,-14.38 l 0,-13.002 c -0.635,-0.107 -1.27,-0.177 -1.904,-0.213 -0.634,-0.034 -1.25,-0.052 -1.849,-0.052 -0.6,0 -1.208,0.018 -1.825,0.052 -0.616,0.036 -1.261,0.106 -1.929,0.213 L 0,0 Z"
             style="fill:#b7b2a2;fill-opacity:1;fill-rule:nonzero;stroke:none"
             id="path3455"
             inkscape:connector-curvature="0" /></g><g
           id="g3457"
           transform="translate(269.937,223.6846)"><path
             d="m 0,0 c -0.422,0.072 -0.881,0.134 -1.375,0.188 -0.494,0.052 -0.935,0.079 -1.321,0.079 -1.728,0 -3.093,-0.31 -4.097,-0.924 -1.005,-0.618 -1.507,-1.615 -1.507,-2.988 0,-0.917 0.193,-1.621 0.581,-2.115 0.389,-0.494 0.854,-0.855 1.402,-1.085 0.546,-0.229 1.126,-0.369 1.744,-0.422 0.616,-0.052 1.153,-0.079 1.612,-0.079 0.528,0 1.058,0.043 1.586,0.132 0.528,0.088 0.985,0.165 1.375,0.238 L 0,0 Z m 0,5.448 c 0,0.846 -0.142,1.532 -0.422,2.059 -0.283,0.53 -0.672,0.944 -1.164,1.245 -0.495,0.298 -1.103,0.502 -1.825,0.606 -0.722,0.106 -1.525,0.16 -2.405,0.16 -1.903,0 -3.93,-0.371 -6.079,-1.111 -0.493,0.915 -0.864,1.779 -1.11,2.591 -0.247,0.81 -0.37,1.779 -0.37,2.908 1.55,0.528 3.101,0.915 4.651,1.162 1.551,0.246 2.996,0.37 4.335,0.37 3.665,0 6.529,-0.882 8.592,-2.642 2.06,-1.763 3.091,-4.583 3.091,-8.459 l 0,-15.859 c -1.233,-0.39 -2.731,-0.759 -4.494,-1.11 -1.761,-0.353 -3.752,-0.529 -5.973,-0.529 -1.797,0 -3.445,0.158 -4.943,0.476 -1.497,0.316 -2.783,0.844 -3.859,1.586 -1.074,0.739 -1.902,1.691 -2.484,2.853 -0.582,1.164 -0.872,2.591 -0.872,4.285 0,1.689 0.36,3.108 1.083,4.253 0.723,1.147 1.657,2.062 2.802,2.749 1.146,0.688 2.423,1.182 3.833,1.48 1.409,0.3 2.82,0.451 4.229,0.451 1.023,0 2.15,-0.054 3.384,-0.159 l 0,0.635 z"
             style="fill:#b7b2a2;fill-opacity:1;fill-rule:nonzero;stroke:none"
             id="path3459"
             inkscape:connector-curvature="0" /></g><g
           id="g3461"
           transform="translate(281.8281,238.4883)"><path
             d="m 0,0 c 0.494,0.106 0.987,0.186 1.48,0.238 0.494,0.054 1.039,0.08 1.64,0.08 0.598,0 1.127,-0.026 1.585,-0.08 C 5.163,0.186 5.639,0.106 6.133,0 6.239,-0.176 6.335,-0.432 6.423,-0.766 6.511,-1.101 6.59,-1.453 6.661,-1.823 6.731,-2.194 6.793,-2.555 6.846,-2.907 6.899,-3.26 6.943,-3.56 6.978,-3.806 c 0.352,0.528 0.775,1.056 1.269,1.585 0.494,0.53 1.066,1.004 1.718,1.429 0.651,0.422 1.382,0.766 2.194,1.03 0.81,0.263 1.709,0.396 2.696,0.396 3.101,0 5.437,-0.844 7.004,-2.537 1.567,-1.692 2.354,-4.354 2.354,-7.983 l 0,-17.445 c -1.271,-0.211 -2.522,-0.316 -3.753,-0.316 -1.235,0 -2.485,0.105 -3.753,0.316 l 0,15.436 c 0,1.904 -0.294,3.365 -0.874,4.391 -0.581,1.019 -1.595,1.53 -3.04,1.53 -0.6,0 -1.216,-0.087 -1.851,-0.263 C 10.309,-6.415 9.735,-6.757 9.225,-7.269 8.714,-7.78 8.3,-8.493 7.982,-9.408 7.666,-10.326 7.506,-11.523 7.506,-13.004 l 0,-14.327 c -1.267,-0.211 -2.519,-0.316 -3.752,-0.316 -1.235,0 -2.485,0.105 -3.754,0.316 L 0,0 Z"
             style="fill:#b7b2a2;fill-opacity:1;fill-rule:nonzero;stroke:none"
             id="path3463"
             inkscape:connector-curvature="0" /></g><g
           id="g3465"
           transform="translate(316.9346,223.0532)"><path
             d="m 0,0 c -1.975,0.563 -3.516,1.4 -4.625,2.511 -1.111,1.109 -1.666,2.776 -1.666,4.996 0,2.675 0.96,4.773 2.881,6.289 1.921,1.515 4.538,2.273 7.849,2.273 1.374,0 2.731,-0.123 4.073,-0.37 1.338,-0.247 2.694,-0.616 4.07,-1.109 -0.071,-0.917 -0.248,-1.868 -0.529,-2.855 -0.282,-0.987 -0.618,-1.85 -1.005,-2.59 -0.845,0.351 -1.778,0.66 -2.8,0.925 -1.025,0.263 -2.099,0.396 -3.227,0.396 -1.2,0 -2.131,-0.185 -2.801,-0.555 C 1.55,9.541 1.215,8.95 1.215,8.138 1.215,7.364 1.453,6.818 1.93,6.5 2.404,6.185 3.082,5.884 3.965,5.604 l 3.013,-0.9 c 0.986,-0.282 1.877,-0.626 2.67,-1.032 0.791,-0.403 1.471,-0.907 2.036,-1.505 0.562,-0.601 1.002,-1.34 1.32,-2.223 0.317,-0.88 0.476,-1.953 0.476,-3.222 0,-1.305 -0.273,-2.52 -0.819,-3.649 -0.548,-1.127 -1.341,-2.105 -2.38,-2.933 -1.038,-0.829 -2.299,-1.481 -3.778,-1.955 -1.482,-0.477 -3.155,-0.714 -5.023,-0.714 -0.846,0 -1.621,0.025 -2.327,0.077 -0.706,0.055 -1.383,0.142 -2.036,0.265 -0.65,0.125 -1.294,0.274 -1.929,0.45 -0.634,0.176 -1.32,0.405 -2.06,0.687 0.069,0.952 0.238,1.912 0.503,2.881 0.264,0.97 0.608,1.912 1.03,2.83 1.162,-0.459 2.264,-0.804 3.304,-1.032 1.04,-0.23 2.124,-0.343 3.25,-0.343 0.494,0 1.032,0.043 1.612,0.131 0.584,0.088 1.12,0.247 1.612,0.478 0.496,0.227 0.909,0.527 1.244,0.898 0.335,0.369 0.503,0.853 0.503,1.453 0,0.846 -0.257,1.454 -0.77,1.823 -0.51,0.37 -1.223,0.696 -2.139,0.979 L 0,0 Z"
             style="fill:#b7b2a2;fill-opacity:1;fill-rule:nonzero;stroke:none"
             id="path3467"
             inkscape:connector-curvature="0" /></g><g
           id="g3469"
           transform="translate(334.6787,249.8018)"><path
             d="M 0,0 C 1.27,0.209 2.52,0.316 3.754,0.316 4.95,0.316 6.186,0.209 7.455,0 l 0,-27.755 c 0,-1.093 0.061,-1.973 0.184,-2.641 0.123,-0.67 0.317,-1.19 0.58,-1.56 0.266,-0.37 0.609,-0.627 1.032,-0.767 0.423,-0.14 0.952,-0.211 1.586,-0.211 0.282,0 0.59,0.017 0.926,0.053 0.333,0.035 0.661,0.087 0.977,0.158 0.387,-1.446 0.581,-2.855 0.581,-4.228 l 0,-0.769 c 0,-0.229 -0.035,-0.485 -0.105,-0.766 -0.564,-0.176 -1.242,-0.299 -2.035,-0.37 -0.793,-0.068 -1.525,-0.104 -2.196,-0.104 -2.713,0 -4.887,0.748 -6.528,2.246 C 0.819,-35.218 0,-32.777 0,-29.393 L 0,0 Z"
             style="fill:#b7b2a2;fill-opacity:1;fill-rule:nonzero;stroke:none"
             id="path3471"
             inkscape:connector-curvature="0" /></g><g
           id="g3473"
           transform="translate(364.7861,223.6846)"><path
             d="m 0,0 c -0.422,0.072 -0.879,0.134 -1.374,0.188 -0.495,0.052 -0.933,0.079 -1.32,0.079 -1.729,0 -3.095,-0.31 -4.099,-0.924 -1.005,-0.618 -1.507,-1.615 -1.507,-2.988 0,-0.917 0.194,-1.621 0.581,-2.115 0.388,-0.494 0.856,-0.855 1.404,-1.085 0.546,-0.229 1.126,-0.369 1.744,-0.422 0.617,-0.052 1.152,-0.079 1.611,-0.079 0.528,0 1.059,0.043 1.586,0.132 0.529,0.088 0.986,0.165 1.374,0.238 L 0,0 Z m 0,5.448 c 0,0.846 -0.141,1.532 -0.422,2.059 -0.283,0.53 -0.672,0.944 -1.163,1.245 -0.493,0.298 -1.102,0.502 -1.824,0.606 -0.723,0.106 -1.525,0.16 -2.406,0.16 -1.904,0 -3.93,-0.371 -6.08,-1.111 -0.493,0.915 -0.863,1.779 -1.109,2.591 -0.247,0.81 -0.369,1.779 -0.369,2.908 1.55,0.528 3.099,0.915 4.652,1.162 1.55,0.246 2.994,0.37 4.334,0.37 3.664,0 6.527,-0.882 8.59,-2.642 2.063,-1.763 3.095,-4.583 3.095,-8.459 l 0,-15.859 c -1.236,-0.39 -2.734,-0.759 -4.494,-1.11 -1.764,-0.353 -3.755,-0.529 -5.976,-0.529 -1.795,0 -3.444,0.158 -4.941,0.476 -1.499,0.316 -2.785,0.844 -3.86,1.586 -1.076,0.739 -1.903,1.691 -2.486,2.853 -0.581,1.164 -0.872,2.591 -0.872,4.285 0,1.689 0.362,3.108 1.085,4.253 0.723,1.147 1.655,2.062 2.802,2.749 1.145,0.688 2.422,1.182 3.832,1.48 1.41,0.3 2.819,0.451 4.229,0.451 1.023,0 2.151,-0.054 3.383,-0.159 l 0,0.635 z"
             style="fill:#b7b2a2;fill-opacity:1;fill-rule:nonzero;stroke:none"
             id="path3475"
             inkscape:connector-curvature="0" /></g><g
           id="g3477"
           transform="translate(377.2148,232.7798)"><path
             d="m 0,0 -3.437,0 -0.265,1.058 9.885,12.633 1.217,0 0,-7.983 6.396,0 C 13.902,5.18 13.973,4.704 14.009,4.282 14.044,3.857 14.061,3.416 14.061,2.959 14.061,2.467 14.044,1.99 14.009,1.532 13.973,1.075 13.902,0.563 13.796,0 L 7.4,0 l 0,-10.733 c 0,-1.093 0.086,-1.973 0.264,-2.641 0.178,-0.67 0.431,-1.2 0.767,-1.586 0.335,-0.39 0.748,-0.653 1.242,-0.795 0.495,-0.14 1.075,-0.21 1.746,-0.21 0.527,0 1.047,0.043 1.559,0.133 0.509,0.086 0.959,0.165 1.347,0.237 0.245,-0.67 0.423,-1.366 0.529,-2.089 0.106,-0.721 0.16,-1.366 0.16,-1.928 0,-0.388 -0.01,-0.715 -0.029,-0.979 -0.017,-0.263 -0.043,-0.519 -0.079,-0.766 -1.621,-0.387 -3.296,-0.581 -5.021,-0.581 -3.208,0 -5.656,0.748 -7.35,2.246 C 0.846,-18.196 0,-15.755 0,-12.371 L 0,0 Z"
             style="fill:#b7b2a2;fill-opacity:1;fill-rule:nonzero;stroke:none"
             id="path3479"
             inkscape:connector-curvature="0" /></g><g
           id="g3481"
           transform="translate(411.6357,227.7573)"><path
             d="m 0,0 c -0.071,1.69 -0.539,3.057 -1.402,4.099 -0.864,1.037 -2.07,1.556 -3.622,1.556 -1.76,0 -3.099,-0.492 -4.017,-1.479 C -9.958,3.189 -10.504,1.796 -10.68,0 L 0,0 Z m -10.731,-5.235 c 0.139,-2.113 0.879,-3.647 2.218,-4.598 1.341,-0.951 3.103,-1.427 5.286,-1.427 1.199,0 2.424,0.113 3.675,0.343 1.252,0.229 2.441,0.557 3.569,0.979 0.386,-0.706 0.72,-1.552 1.004,-2.539 0.282,-0.986 0.44,-2.044 0.476,-3.169 -2.75,-1.059 -5.85,-1.587 -9.303,-1.587 -2.539,0 -4.714,0.353 -6.529,1.057 -1.816,0.703 -3.296,1.683 -4.441,2.932 -1.145,1.252 -1.992,2.742 -2.537,4.468 -0.548,1.727 -0.819,3.612 -0.819,5.657 0,2.009 0.281,3.894 0.845,5.656 0.563,1.761 1.4,3.296 2.511,4.599 1.109,1.302 2.482,2.335 4.123,3.092 1.639,0.759 3.55,1.137 5.736,1.137 1.904,0 3.595,-0.335 5.076,-1.004 C 1.639,9.692 2.898,8.775 3.938,7.613 4.977,6.449 5.761,5.066 6.29,3.462 6.819,1.858 7.083,0.141 7.083,-1.691 7.083,-2.362 7.057,-3.023 7.004,-3.676 6.951,-4.327 6.89,-4.847 6.819,-5.235 l -17.55,0 z"
             style="fill:#b7b2a2;fill-opacity:1;fill-rule:nonzero;stroke:none"
             id="path3483"
             inkscape:connector-curvature="0" /></g><path
           d="m 252.555,346.181 7.442,0 0,-79.927 -7.442,0 0,79.927 z"
           style="fill:#dba20a;fill-opacity:1;fill-rule:nonzero;stroke:#dba20a;stroke-width:1;stroke-linecap:butt;stroke-linejoin:miter;stroke-miterlimit:10;stroke-dasharray:none;stroke-opacity:1"
           id="path3485"
           inkscape:connector-curvature="0" /><path
           d="m 295.926,302.485 -79.927,0 0,7.442 79.927,0 0,-7.442 z"
           style="fill:#dba20a;fill-opacity:1;fill-rule:nonzero;stroke:#dba20a;stroke-width:1;stroke-linecap:butt;stroke-linejoin:miter;stroke-miterlimit:10;stroke-dasharray:none;stroke-opacity:1"
           id="path3487"
           inkscape:connector-curvature="0" /></g></g></g></svg>