<?xml version="1.0" encoding="UTF-8" standalone="no"?>
<!-- Created with Inkscape (http://www.inkscape.org/) -->

<svg
   xmlns:dc="http://purl.org/dc/elements/1.1/"
   xmlns:cc="http://creativecommons.org/ns#"
   xmlns:rdf="http://www.w3.org/1999/02/22-rdf-syntax-ns#"
   xmlns:svg="http://www.w3.org/2000/svg"
   xmlns="http://www.w3.org/2000/svg"
   xmlns:sodipodi="http://sodipodi.sourceforge.net/DTD/sodipodi-0.dtd"
   xmlns:inkscape="http://www.inkscape.org/namespaces/inkscape"
   id="svg3355"
   version="1.1"
   inkscape:version="0.91 r13725"
   xml:space="preserve"
   width="122.38"
   height="122.38101"
   viewBox="0 0 122.38 122.38101"
   sodipodi:docname="menuitem.svg"><metadata
     id="metadata3361"><rdf:RDF><cc:Work
         rdf:about=""><dc:format>image/svg+xml</dc:format><dc:type
           rdf:resource="http://purl.org/dc/dcmitype/StillImage" /><dc:title></dc:title></cc:Work></rdf:RDF></metadata><defs
     id="defs3359"><clipPath
       clipPathUnits="userSpaceOnUse"
       id="clipPath3369"><path
         d="m 0,529.324 595.28,0 L 595.28,0 0,0 0,529.324 Z"
         id="path3371"
         inkscape:connector-curvature="0" /></clipPath><clipPath
       clipPathUnits="userSpaceOnUse"
       id="clipPath3401"><path
         d="m 0,529.324 595.28,0 L 595.28,0 0,0 0,529.324 Z"
         id="path3403"
         inkscape:connector-curvature="0" /></clipPath></defs><sodipodi:namedview
     pagecolor="#ffffff"
     bordercolor="#666666"
     borderopacity="1"
     objecttolerance="10"
     gridtolerance="10"
     guidetolerance="10"
     inkscape:pageopacity="0"
     inkscape:pageshadow="2"
     inkscape:window-width="1436"
     inkscape:window-height="855"
     id="namedview3357"
     showgrid="false"
     fit-margin-top="0"
     fit-margin-left="0"
     fit-margin-right="0"
     fit-margin-bottom="0"
     inkscape:zoom="4"
     inkscape:cx="-2.7312155"
     inkscape:cy="65.665737"
     inkscape:window-x="44"
     inkscape:window-y="34"
     inkscape:window-maximized="0"
     inkscape:current-layer="g3363" /><g
     id="g3363"
     inkscape:groupmode="layer"
     inkscape:label="GTRANSLATElogo2"
     transform="matrix(1.25,0,0,-1.25,-344.50004,546.14768)"><g
       transform="matrix(1.0718194,0,0,1.0718194,358.22863,365.33221)"
       id="g3696"
       style="fill:#ffffff"><path
         inkscape:connector-curvature="0"
         id="path3698"
         style="fill:#ffffff;fill-opacity:1;fill-rule:nonzero;stroke:none"
         d="m 0.87409787,53.411427 c -17.83499987,17.837 -46.75299987,17.837 -64.58899987,0 -17.836,-17.836 -17.836,-46.7529999 0,-64.589 17.836,-17.837 46.754,-17.837 64.58899987,0 17.83700013,17.8360001 17.83700013,46.753 0,64.589"
         sodipodi:nodetypes="ccccc" /></g><g
       id="g3377"
       transform="translate(302.8076,325.0176)" /><g
       id="g3385"
       transform="translate(344.69416,365.42424)"><g
         id="g3702"><g
           transform="translate(-30.0332,15.085)"
           id="g3381"><path
             inkscape:connector-curvature="0"
             id="path3383"
             style="fill:#8b3084;fill-opacity:1;fill-rule:nonzero;stroke:none"
             d="m 0,0 c 0,-4.382 2.539,-6.573 7.622,-6.573 6.847,0 10.27,3.424 10.27,10.27 l 0,4.565 C 15.943,8.657 14.483,8.854 13.51,8.854 4.503,8.854 0,5.903 0,0" /></g><path
           inkscape:connector-curvature="0"
           id="path3387"
           style="fill:#8b3084;fill-opacity:1;fill-rule:nonzero;stroke:none"
           d="m 0,0 c -1.156,-0.381 -2.48,-0.571 -3.972,-0.571 -1.643,0 -3.119,0.609 -4.426,1.826 -1.309,1.217 -2.192,2.54 -2.648,3.971 -1.034,-1.705 -2.838,-3.097 -5.409,-4.176 -2.571,-1.08 -5.257,-1.621 -8.056,-1.621 -5.264,0 -9.403,1.316 -12.415,3.948 -3.012,2.632 -4.519,6.368 -4.519,11.206 0,5.66 2.123,10.087 6.367,13.282 4.246,3.196 10.277,4.793 18.098,4.793 1.339,0 2.921,-0.229 4.748,-0.685 0,5.752 -3.637,8.627 -10.911,8.627 -4.289,0 -7.88,-0.715 -10.771,-2.145 l -2.465,8.855 c 3.926,1.886 8.597,2.83 14.014,2.83 7.455,0 12.917,-1.697 16.386,-5.09 3.468,-3.393 5.203,-9.821 5.203,-19.284 l 0,-10.453 C -0.776,8.801 0.531,4.708 3.149,3.035 2.205,1.392 1.156,0.38 0,0 m 12.152,54.836 c -17.835,17.837 -46.753,17.837 -64.589,0 -17.836,-17.836 -17.836,-46.753 0,-64.589 17.836,-17.837 46.754,-17.837 64.589,0 17.837,17.836 17.837,46.753 0,64.589" /></g></g></g></svg>