<svg xmlns="http://www.w3.org/2000/svg" viewBox="0 0 122 122" height="122" width="122" version="1"><path d="M104 18C81-6 42-6 18 18s-24 63 0 86c24 24 63 24 86 0 24-23 24-62 0-86" fill="#fff"/><path d="M49 71c0 5 3 8 9 8 9 0 13-5 13-13v-6l-5-1c-12 0-17 4-17 12" fill="#8b3084"/><path d="M86 89l-5 1-5-2c-2-2-3-3-3-5l-7 5-10 2c-7 0-12-2-16-5s-5-8-5-14c0-7 2-12 8-16 5-4 12-6 22-6h6c0-7-4-10-14-10l-13 2-3-11c5-2 11-3 17-3 10 0 17 2 21 6s6 12 6 24v13c0 8 2 13 5 16-1 2-2 3-4 3m16-68C79-1 43-1 21 21s-22 58 0 81c22 22 58 22 81 0 22-23 22-59 0-81" fill="#8b3084"/></svg>
